<?xml version="1.0" encoding="UTF-8"?>
<svg version="1.1" xmlns="http://www.w3.org/2000/svg" width="512" height="286">
<path d="M0 0 C168.96 0 337.92 0 512 0 C512 94.38 512 188.76 512 286 C343.04 286 174.08 286 0 286 C0 191.62 0 97.24 0 0 Z " fill="#42566C" transform="translate(0,0)"/>
<path d="M0 0 C2.66666667 1.33333333 5.33333333 2.66666667 8 4 C8 4.66 8 5.32 8 6 C8.928125 6.268125 9.85625 6.53625 10.8125 6.8125 C15.64788732 8.61391881 15.64788732 8.61391881 17 11 C16.93435327 13.76263334 16.49357576 16.26289807 16 19 C16.99 19.33 17.98 19.66 19 20 C20.54523021 21.90663764 22.01535003 23.87487677 23.4375 25.875 C27.45964738 31.52370106 31.11536139 34.50102569 37 38 C37.33 38.33 37.66 38.66 38 39 C40.67058851 39.14115161 43.32432238 39.04247107 46 39 C43.03 36.36 40.06 33.72 37 31 C37.99 30.67 38.98 30.34 40 30 C41.43736034 31.20337145 42.86810515 32.41657317 44.24609375 33.6875 C46.22839288 35.17091316 47.86824224 35.62754425 50.25 36.25 C52.3046875 36.91796875 52.3046875 36.91796875 54 38 C54.97867269 40.34275188 55.35903006 42.42356154 55.6484375 44.94140625 C55.8332366 47.21855702 55.8332366 47.21855702 58 49 C58 49.99 58 50.98 58 52 C51.89627127 52.56778872 46.9458754 50.90576091 41.1640625 49.01171875 C38.5897088 48.18856121 36.07335799 47.51501945 33.4375 46.9375 C30.06797767 46.01853937 28.71052375 45.03289281 26 43 C24.09764276 42.50801106 22.19276109 42.02252938 20.2734375 41.6015625 C16.92882368 40.71656159 13.84027935 39.31363856 10.6875 37.90234375 C7.19501514 36.63091063 7.19501514 36.63091063 0 36 C0 24.12 0 12.24 0 0 Z " fill="#2F2D2F" transform="translate(390,116)"/>
<path d="M0 0 C0.80824219 0.10183594 1.61648438 0.20367187 2.44921875 0.30859375 C3.06410156 0.39238281 3.67898438 0.47617188 4.3125 0.5625 C4.3125 1.2225 4.3125 1.8825 4.3125 2.5625 C3.3225 2.5625 2.3325 2.5625 1.3125 2.5625 C3.67542656 5.08838702 4.97712511 6.45070837 8.3125 7.5625 C8.3125 8.2225 8.3125 8.8825 8.3125 9.5625 C9.735625 9.6553125 9.735625 9.6553125 11.1875 9.75 C12.21875 10.018125 13.25 10.28625 14.3125 10.5625 C15.6875 13.125 15.6875 13.125 16.3125 15.5625 C12.97916667 13.89583333 9.64583333 12.22916667 6.3125 10.5625 C6.3125 9.9025 6.3125 9.2425 6.3125 8.5625 C5.44625 8.4078125 5.44625 8.4078125 4.5625 8.25 C2.3125 7.5625 2.3125 7.5625 -1.6875 4.5625 C-1.6875 16.4425 -1.6875 28.3225 -1.6875 40.5625 C0.9525 40.5625 3.5925 40.5625 6.3125 40.5625 C8.9296875 41.33203125 8.9296875 41.33203125 11.1875 42.375 C15.45420059 44.25445853 19.65723554 45.55190578 24.18359375 46.65625 C26.81861069 47.77794528 27.7939125 49.17963602 29.3125 51.5625 C27.6625 51.5625 26.0125 51.5625 24.3125 51.5625 C24.3125 50.5725 24.3125 49.5825 24.3125 48.5625 C23.61382812 48.57410156 22.91515625 48.58570313 22.1953125 48.59765625 C21.28523438 48.60667969 20.37515625 48.61570313 19.4375 48.625 C18.53257812 48.63660156 17.62765625 48.64820313 16.6953125 48.66015625 C14.3125 48.5625 14.3125 48.5625 12.3125 47.5625 C12.3125 46.9025 12.3125 46.2425 12.3125 45.5625 C8.8475 45.0675 8.8475 45.0675 5.3125 44.5625 C5.3125 45.2225 5.3125 45.8825 5.3125 46.5625 C3.8275 47.0575 3.8275 47.0575 2.3125 47.5625 C1.6525 47.2325 0.9925 46.9025 0.3125 46.5625 C0.32410156 47.52671875 0.33570313 48.4909375 0.34765625 49.484375 C0.35667969 50.74765625 0.36570312 52.0109375 0.375 53.3125 C0.38660156 54.56546875 0.39820313 55.8184375 0.41015625 57.109375 C0.33112724 59.90384068 -0.02161516 61.91015198 -0.6875 64.5625 C-0.57991071 66.19247771 -0.40933562 67.81910829 -0.1875 69.4375 C0.27212369 73.37048249 0.23412012 76.67121503 -0.6875 80.5625 C-2.0075 80.5625 -3.3275 80.5625 -4.6875 80.5625 C-5.0175 81.5525 -5.3475 82.5425 -5.6875 83.5625 C-6.55092835 77.62643008 -6.79711678 71.80105922 -6.8125 65.8125 C-6.81701172 65.07974854 -6.82152344 64.34699707 -6.82617188 63.59204102 C-6.81112285 58.09852096 -6.81112285 58.09852096 -6.1875 55.39453125 C-5.47827544 51.377439 -5.54494597 47.43075307 -5.5546875 43.359375 C-5.55325241 42.04178192 -5.55325241 42.04178192 -5.55178833 40.6975708 C-5.55110981 38.84851001 -5.55294115 36.9994468 -5.55712891 35.15039062 C-5.56250749 32.3085401 -5.5571597 29.46684579 -5.55078125 26.625 C-5.55144159 24.82812465 -5.55272183 23.0312494 -5.5546875 21.234375 C-5.55266327 20.38027039 -5.55063904 19.52616577 -5.54855347 18.6461792 C-5.18393972 14.7941287 -5.18393972 14.7941287 -6.6875 11.5625 C-6.92113881 9.71358054 -7.10053635 7.85761969 -7.25 6 C-7.33378906 4.98808594 -7.41757812 3.97617188 -7.50390625 2.93359375 C-7.56449219 2.15113281 -7.62507813 1.36867188 -7.6875 0.5625 C-4.59271121 -0.46909626 -3.16118607 -0.41232862 0 0 Z " fill="#978F96" transform="translate(391.6875,111.4375)"/>
<path d="M0 0 C2.66666667 1.33333333 5.33333333 2.66666667 8 4 C8 4.66 8 5.32 8 6 C8.928125 6.268125 9.85625 6.53625 10.8125 6.8125 C15.52307692 8.56742081 15.52307692 8.56742081 17 11 C16.6875 14.1875 16.6875 14.1875 16 17 C12.13961564 14.91093035 9.53447389 12.64201183 6.6875 9.3125 C5.99011719 8.50425781 5.29273438 7.69601563 4.57421875 6.86328125 C4.05472656 6.24839844 3.53523438 5.63351563 3 5 C7.05822954 12.22487835 11.67852782 18.65205096 17 25 C16.67 25.66 16.34 26.32 16 27 C13.69 24.03 11.38 21.06 9 18 C9.515625 18.928125 10.03125 19.85625 10.5625 20.8125 C12 24 12 24 11 27 C10.67 27.33 10.34 27.66 10 28 C7 28 7 28 5 27 C5.61875 27.763125 6.2375 28.52625 6.875 29.3125 C9 32 9 32 11 35 C11 32.84365964 10.5534764 31.07553648 10 29 C13.75376152 30.25125384 14.24073289 31.5652404 16 35 C16 35.66 16 36.32 16 37 C16.66 37.33 17.32 37.66 18 38 C14.12591813 39.49003149 11.81290994 38.31985344 8 37 C4.04 36.505 4.04 36.505 0 36 C0 24.12 0 12.24 0 0 Z " fill="#CD575E" transform="translate(390,116)"/>
<path d="M0 0 C0.639375 0.66 1.27875 1.32 1.9375 2 C5.18518339 5.27584249 8.69968251 8.23806518 12.20703125 11.23046875 C12.79871094 11.81441406 13.39039063 12.39835938 14 13 C14 13.66 14 14.32 14 15 C14.99 15.33 15.98 15.66 17 16 C19.04296875 18.50390625 19.04296875 18.50390625 21.1875 21.5625 C21.90292969 22.57441406 22.61835938 23.58632812 23.35546875 24.62890625 C23.89816406 25.41136719 24.44085938 26.19382813 25 27 C21.28272326 28.13583456 19.52948291 27.66670026 16 26 C16.33 29.3 16.66 32.6 17 36 C15.515 35.505 15.515 35.505 14 35 C13 32 13 32 12 29 C10.00064306 26.66468542 10.00064306 26.66468542 8 25 C8.99 26.98 9.98 28.96 11 31 C10.01 31.33 9.02 31.66 8 32 C6.19933758 29.0534615 4.49836105 26.11198065 3 23 C4.32 23.33 5.64 23.66 7 24 C8.47729767 19.56810699 7.51660384 17.36023605 6 13 C8.66666667 15.66666667 11.33333333 18.33333333 14 21 C13.49210937 20.38253906 12.98421875 19.76507813 12.4609375 19.12890625 C0 3.79775281 0 3.79775281 0 0 Z " fill="#702026" transform="translate(392,120)"/>
<path d="M0 0 C2.21033133 1.08184993 4.29089995 2.18372628 6.375 3.5 C8.9494004 5.10941461 8.9494004 5.10941461 11.8828125 5.82421875 C15.38083247 7.14364733 16.97545684 8.59129858 19.5 11.3125 C22.09227736 14.03636504 24.63389963 16.63911885 27.5625 19 C28.366875 19.66 29.17125 20.32 30 21 C30 21.33 30 21.66 30 22 C28.56344146 22.08131463 27.1255517 22.13933559 25.6875 22.1875 C24.48673828 22.23970703 24.48673828 22.23970703 23.26171875 22.29296875 C20.47371685 21.93182861 19.81971646 21.06200165 18 19 C17.0925 18.608125 16.185 18.21625 15.25 17.8125 C8.2160312 13.88970971 3.94683135 6.83874926 0 0 Z " fill="#636662" transform="translate(407,134)"/>
<path d="M0 0 C4.88234166 1.62744722 7.21860496 5.82790744 10 10 C9 13 9 13 8 14 C5 14 5 14 3 13 C3.928125 14.1446875 3.928125 14.1446875 4.875 15.3125 C7 18 7 18 9 21 C9 18.84365964 8.5534764 17.07553648 8 15 C11.75376152 16.25125384 12.24073289 17.5652404 14 21 C14 21.66 14 22.32 14 23 C14.66 23.33 15.32 23.66 16 24 C12.18510326 25.46726798 9.70988378 24.43336419 6 23 C6 22.34 6 21.68 6 21 C4.02 21 2.04 21 0 21 C0 14.07 0 7.14 0 0 Z " fill="#F33B3F" transform="translate(392,130)"/>
<path d="M0 0 C3.08919284 0.34324365 4.61414697 0.6008417 6.8125 2.875 C9.13615536 5.13226521 10.10734996 5.38823053 13.125 6.1875 C15.234375 6.8828125 15.234375 6.8828125 17 8 C17.98615447 10.34427948 18.35858494 12.41968896 18.6484375 14.94140625 C18.8332366 17.21855702 18.8332366 17.21855702 21 19 C21 19.99 21 20.98 21 22 C16.52005462 22.17568413 12.93506934 22.29545711 9 20 C6.88082237 17.12397322 5.64991143 14.50952175 5 11 C6.65 10.67 8.3 10.34 10 10 C9.278125 9.36191406 8.55625 8.72382813 7.8125 8.06640625 C6.884375 7.24011719 5.95625 6.41382813 5 5.5625 C4.071875 4.73878906 3.14375 3.91507813 2.1875 3.06640625 C1.465625 2.38449219 0.74375 1.70257813 0 1 C0 0.67 0 0.34 0 0 Z " fill="#252A2A" transform="translate(427,146)"/>
<path d="M0 0 C0.66 0 1.32 0 2 0 C2 24.42 2 48.84 2 74 C0.11945785 70.2389157 -0.26095261 68.92931829 -0.3347168 64.95043945 C-0.35781418 63.94451248 -0.38091156 62.93858551 -0.40470886 61.9021759 C-0.41939713 60.81684067 -0.43408539 59.73150543 -0.44921875 58.61328125 C-0.47095657 57.48286911 -0.4926944 56.35245697 -0.51509094 55.18778992 C-0.55903388 52.78795248 -0.5982277 50.38802412 -0.63305664 47.98803711 C-0.68662971 44.37125446 -0.75708128 40.75510859 -0.83007812 37.13867188 C-1.05506897 24.70816922 -1.03220841 12.39417943 0 0 Z " fill="#A7AEAE" transform="translate(387,114)"/>
<path d="M0 0 C8.95131086 0 8.95131086 0 12.875 1.8125 C17.14170059 3.69195853 21.34473554 4.98940578 25.87109375 6.09375 C28.50611069 7.21544528 29.4814125 8.61713602 31 11 C29.35 11 27.7 11 26 11 C26 10.01 26 9.02 26 8 C24.95199219 8.01740234 24.95199219 8.01740234 23.8828125 8.03515625 C22.97273438 8.04417969 22.06265625 8.05320313 21.125 8.0625 C19.76761719 8.07990234 19.76761719 8.07990234 18.3828125 8.09765625 C16 8 16 8 14 7 C14 6.34 14 5.68 14 5 C11.69 4.67 9.38 4.34 7 4 C7 4.66 7 5.32 7 6 C6.01 6.33 5.02 6.66 4 7 C3.34 6.67 2.68 6.34 2 6 C2.02320313 6.98742187 2.04640625 7.97484375 2.0703125 8.9921875 C2.08835937 10.27351562 2.10640625 11.55484375 2.125 12.875 C2.14820313 14.15117187 2.17140625 15.42734375 2.1953125 16.7421875 C2 20 2 20 0 22 C0 14.74 0 7.48 0 0 Z " fill="#737A83" transform="translate(390,152)"/>
<path d="M0 0 C2 2 2 2 2.75 4.125 C4.53903405 8.23977831 7.25510158 11.47544733 10 15 C11.12785587 16.49785384 12.25298009 17.99776955 13.375 19.5 C13.87773437 20.1703125 14.38046875 20.840625 14.8984375 21.53125 C15.26195312 22.0159375 15.62546875 22.500625 16 23 C15.67 23.66 15.34 24.32 15 25 C14.54109375 24.36191406 14.0821875 23.72382813 13.609375 23.06640625 C12.99578125 22.24011719 12.3821875 21.41382813 11.75 20.5625 C11.14671875 19.73878906 10.5434375 18.91507813 9.921875 18.06640625 C7.80946179 15.79513269 6.9264173 15.60284196 4 15 C3.01 14.01 2.02 13.02 1 12 C1 18.93 1 25.86 1 33 C2.98 33 4.96 33 7 33 C7 33.33 7 33.66 7 34 C4.36 34 1.72 34 -1 34 C-0.67 22.78 -0.34 11.56 0 0 Z " fill="#D24448" transform="translate(391,118)"/>
<path d="M0 0 C3.79164589 2.06817048 6.86424577 4.53969507 10.0859375 7.37109375 C13.26619545 10.07755817 16.63238009 12.53332776 20 15 C19.67 15.99 19.34 16.98 19 18 C18.195625 17.236875 17.39125 16.47375 16.5625 15.6875 C13.31965594 12.94652466 10.11701733 11.85495798 6.05078125 10.7734375 C4 10 4 10 2.41796875 8.4140625 C0.97971769 6.64693461 0.97971769 6.64693461 -2 7 C-2.125 4.625 -2.125 4.625 -2 2 C-1.34 1.34 -0.68 0.68 0 0 Z " fill="#204B39" transform="translate(408,128)"/>
<path d="M0 0 C0.33 0 0.66 0 1 0 C1.33 6.6 1.66 13.2 2 20 C2.66 17.36 3.32 14.72 4 12 C4.33 12 4.66 12 5 12 C5.71033431 17.52967941 6.30267176 22.49983036 5 28 C3.68 28 2.36 28 1 28 C0.67 28.99 0.34 29.98 0 31 C-0.86342835 25.06393008 -1.10961678 19.23855922 -1.125 13.25 C-1.12951172 12.51724854 -1.13402344 11.78449707 -1.13867188 11.02954102 C-1.12825815 7.22809863 -0.91642496 3.69479269 0 0 Z " fill="#737B7F" transform="translate(386,164)"/>
<path d="M0 0 C7.06048642 3.48478944 11.78995351 7.32152234 16 14 C16.33 14.99 16.66 15.98 17 17 C17.99 17.33 18.98 17.66 20 18 C19.34 18.33 18.68 18.66 18 19 C9.32452476 15.97367143 4.39092588 7.60824023 0 0 Z " fill="#C2C0BB" transform="translate(407,134)"/>
<path d="M0 0 C1.4391134 0.28359887 2.87625518 0.57721399 4.3125 0.875 C5.11300781 1.03742188 5.91351563 1.19984375 6.73828125 1.3671875 C9 2 9 2 12 4 C13.32284567 4.33604547 14.65805737 4.62592732 16 4.875 C18.9970721 5.55815614 19.81818257 5.80681898 22 8.125 C22.33 8.74375 22.66 9.3625 23 10 C21.35 10 19.7 10 18 10 C18 9.01 18 8.02 18 7 C16.95199219 7.01740234 16.95199219 7.01740234 15.8828125 7.03515625 C14.97273438 7.04417969 14.06265625 7.05320313 13.125 7.0625 C12.22007812 7.07410156 11.31515625 7.08570313 10.3828125 7.09765625 C8 7 8 7 6 6 C6 5.34 6 4.68 6 4 C3.03 3.505 3.03 3.505 0 3 C0 2.01 0 1.02 0 0 Z " fill="#737F8A" transform="translate(398,153)"/>
<path d="M0 0 C0.639375 0.66 1.27875 1.32 1.9375 2 C5.17181758 5.25295918 8.64305844 8.2290059 12.109375 11.23046875 C14 13 14 13 15 15 C15.039992 16.99960012 15.04346799 19.00047242 15 21 C8.6832155 15.27541405 2.85515888 8.0822959 0 0 Z " fill="#6B1B23" transform="translate(392,120)"/>
<path d="M0 0 C4.24404412 3.88026891 7.10917547 8.04254346 10 13 C3.53658537 12.3902439 3.53658537 12.3902439 1.28125 10.75 C-0.38795064 8.47011619 -0.30897654 7.1064604 -0.1875 4.3125 C-0.16042969 3.50425781 -0.13335937 2.69601563 -0.10546875 1.86328125 C-0.07066406 1.24839844 -0.03585937 0.63351563 0 0 Z " fill="#8A7574" transform="translate(407,135)"/>
<path d="M0 0 C4.875 2.625 4.875 2.625 6 6 C6.66 6.33 7.32 6.66 8 7 C8.625 9.5625 8.625 9.5625 9 12 C8.34 12 7.68 12 7 12 C6.0234375 10.20963542 5.046875 8.41927083 4.0703125 6.62890625 C3.08589976 4.83381685 3.08589976 4.83381685 1 4 C1.99 5.98 2.98 7.96 4 10 C3.01 10.33 2.02 10.66 1 11 C-0.80066242 8.0534615 -2.50163895 5.11198065 -4 2 C-2.68 2.33 -1.36 2.66 0 3 C0 2.01 0 1.02 0 0 Z " fill="#B82727" transform="translate(399,141)"/>
<path d="M0 0 C0.99 0.33 1.98 0.66 3 1 C3.66015625 2.9609375 3.66015625 2.9609375 4.0625 5.375 C4.63170911 8.70351803 5.05951616 10.08927425 7 13 C4.36 12.34 1.72 11.68 -1 11 C-2.26264601 6.70700357 -1.62950412 4.12168689 0 0 Z " fill="#2B2F32" transform="translate(441,153)"/>
<path d="M0 0 C3.75376152 1.25125384 4.24073289 2.5652404 6 6 C6 6.66 6 7.32 6 8 C6.66 8.33 7.32 8.66 8 9 C4.18510326 10.46726798 1.70988378 9.43336419 -2 8 C-0.68 7.01 0.64 6.02 2 5 C1.34 4.34 0.68 3.68 0 3 C0 2.01 0 1.02 0 0 Z " fill="#E34249" transform="translate(400,145)"/>
<path d="M0 0 C2.31 0 4.62 0 7 0 C7 1.32 7 2.64 7 4 C7.928125 4.0928125 7.928125 4.0928125 8.875 4.1875 C11 5 11 5 12.25 7.5625 C12.4975 8.366875 12.745 9.17125 13 10 C7.65978754 8.49806525 3.86352256 4.82517494 0 1 C0 0.67 0 0.34 0 0 Z " fill="#779CA2" transform="translate(409,128)"/>
<path d="M0 0 C-0.33 0.66 -0.66 1.32 -1 2 C-2.32 2 -3.64 2 -5 2 C-5 5.3 -5 8.6 -5 12 C-5.66 11.67 -6.32 11.34 -7 11 C-7.4140625 8.49609375 -7.4140625 8.49609375 -7.625 5.4375 C-7.69976562 4.42558594 -7.77453125 3.41367188 -7.8515625 2.37109375 C-7.90054687 1.58863281 -7.94953125 0.80617188 -8 0 C-4.71023192 -1.09658936 -3.28696233 -0.79953138 0 0 Z " fill="#748B9C" transform="translate(392,112)"/>
<path d="M0 0 C5.44208234 0.34013015 8.93668198 3.70296528 13 7 C12.67 7.99 12.34 8.98 12 10 C11.113125 9.195625 10.22625 8.39125 9.3125 7.5625 C6.61712968 5.2960841 4.57936522 4.31582634 1 4 C0.67 2.68 0.34 1.36 0 0 Z " fill="#305D4A" transform="translate(415,136)"/>
<path d="M0 0 C0.33 0 0.66 0 1 0 C1 5.94 1 11.88 1 18 C0.34 18 -0.32 18 -1 18 C-1.22181406 15.56304285 -1.42791119 13.126474 -1.625 10.6875 C-1.68945312 9.99720703 -1.75390625 9.30691406 -1.8203125 8.59570312 C-2.11802847 4.7440028 -2.20763723 3.31145584 0 0 Z " fill="#6C7A86" transform="translate(386,143)"/>
<path d="M0 0 C2.91517292 1.07401108 4.77810176 1.77810176 7 4 C9.66242821 4.46290221 9.66242821 4.46290221 12.625 4.625 C13.62789063 4.69976562 14.63078125 4.77453125 15.6640625 4.8515625 C16.43492187 4.90054688 17.20578125 4.94953125 18 5 C18 5.33 18 5.66 18 6 C15.36 6 12.72 6 10 6 C10 6.99 10 7.98 10 9 C9.34 9 8.68 9 8 9 C8 8.34 8 7.68 8 7 C7.4225 6.731875 6.845 6.46375 6.25 6.1875 C3.94449957 4.97070811 1.97943808 3.69666121 0 2 C0 1.34 0 0.68 0 0 Z " fill="#454542" transform="translate(421,151)"/>
<path d="M0 0 C2.67857172 0.36196915 4.60980914 0.73987276 6.875 2.25 C8 4 8 4 7.6875 6.6875 C7.460625 7.450625 7.23375 8.21375 7 9 C3.26115668 6.34345343 1.35021826 4.41889613 0 0 Z " fill="#8B8D86" transform="translate(417,140)"/>
<path d="M0 0 C2.97 0.495 2.97 0.495 6 1 C6.625 2.8125 6.625 2.8125 7 5 C6.01 6.485 6.01 6.485 5 8 C2.21611025 6.29374499 1.14615794 5.52373261 0.25 2.3125 C0.1675 1.549375 0.085 0.78625 0 0 Z " fill="#CE4445" transform="translate(400,125)"/>
<path d="M0 0 C2 1.125 2 1.125 4 3 C4.25 6.1875 4.25 6.1875 4 9 C1 8 1 8 -1 6 C-1.625 3.375 -1.625 3.375 -2 1 C-1.34 0.67 -0.68 0.34 0 0 Z " fill="#737875" transform="translate(425,145)"/>
<path d="M0 0 C2.31 0 4.62 0 7 0 C6.67 1.65 6.34 3.3 6 5 C5.01 5.33 4.02 5.66 3 6 C1.5 4.6875 1.5 4.6875 0 3 C0 2.01 0 1.02 0 0 Z " fill="#6D7F95" transform="translate(391,153)"/>
<path d="M0 0 C7.5 0.625 7.5 0.625 12 4 C8.37 3.67 4.74 3.34 1 3 C0.67 2.01 0.34 1.02 0 0 Z " fill="#75858E" transform="translate(427,164)"/>
<path d="M0 0 C3.5786304 1.65167557 6.74820188 3.78286492 10 6 C8.02 6.99 8.02 6.99 6 8 C3.33264727 5.51047079 1.44253657 3.36591866 0 0 Z " fill="#B1C2B4" transform="translate(407,134)"/>
<path d="M0 0 C2.31 0.33 4.62 0.66 7 1 C7.33 2.32 7.66 3.64 8 5 C7.01 5.495 7.01 5.495 6 6 C5.01 7.485 5.01 7.485 4 9 C4 7.02 4 5.04 4 3 C2.68 2.67 1.36 2.34 0 2 C0 1.34 0 0.68 0 0 Z " fill="#758A97" transform="translate(440,151)"/>
<path d="M0 0 C1.8125 0.1875 1.8125 0.1875 4 1 C5.75 3.5625 5.75 3.5625 7 6 C4.69 5.67 2.38 5.34 0 5 C0 3.35 0 1.7 0 0 Z " fill="#676663" transform="translate(410,142)"/>
<path d="M0 0 C1.48117801 0.28127421 2.95993249 0.57533732 4.4375 0.875 C5.67306641 1.11863281 5.67306641 1.11863281 6.93359375 1.3671875 C7.61550781 1.57601562 8.29742187 1.78484375 9 2 C9.33 2.66 9.66 3.32 10 4 C6.7 3.67 3.4 3.34 0 3 C0 2.01 0 1.02 0 0 Z " fill="#91727F" transform="translate(398,153)"/>
<path d="M0 0 C3.16524451 0.33913334 3.97600118 0.97247195 6.125 3.4375 C6.74375 4.283125 7.3625 5.12875 8 6 C8.66 6.66 9.32 7.32 10 8 C7.625 7.75 7.625 7.75 5 7 C3.6875 4.9375 3.6875 4.9375 3 3 C2.34 3 1.68 3 1 3 C0.67 2.01 0.34 1.02 0 0 Z " fill="#6D8B8D" transform="translate(429,144)"/>
<path d="M0 0 C3.67420866 0.30618405 4.78135513 0.75771784 7.3125 3.5625 C8.1478125 4.7690625 8.1478125 4.7690625 9 6 C4.58763974 6 3.21615077 3.9302707 0 1 C0 0.67 0 0.34 0 0 Z " fill="#1E352F" transform="translate(427,146)"/>
<path d="M0 0 C0.99 0.33 1.98 0.66 3 1 C3.33 1.99 3.66 2.98 4 4 C4.66 4.33 5.32 4.66 6 5 C6.625 7.5625 6.625 7.5625 7 10 C6.34 10 5.68 10 5 10 C3.7109375 8.3203125 3.7109375 8.3203125 2.375 6.125 C1.92898438 5.40570313 1.48296875 4.68640625 1.0234375 3.9453125 C0 2 0 2 0 0 Z " fill="#A42D35" transform="translate(401,143)"/>
<path d="M0 0 C1.98 0.99 1.98 0.99 4 2 C4 2.66 4 3.32 4 4 C4.99 4.33 5.98 4.66 7 5 C6.01 5.495 6.01 5.495 5 6 C2.375 5.0625 2.375 5.0625 0 4 C0 2.68 0 1.36 0 0 Z " fill="#B0ADAC" transform="translate(420,147)"/>
<path d="M0 0 C5.53846154 -0.36923077 5.53846154 -0.36923077 7.875 1.5 C8.24625 1.995 8.6175 2.49 9 3 C8.67 3.66 8.34 4.32 8 5 C7.01 4.34 6.02 3.68 5 3 C3.68 3 2.36 3 1 3 C0.67 2.01 0.34 1.02 0 0 Z " fill="#272523" transform="translate(412,148)"/>
<path d="M0 0 C1.14926266 0.95421808 2.29430541 1.91352045 3.4375 2.875 C4.07558594 3.40867188 4.71367187 3.94234375 5.37109375 4.4921875 C7 6 7 6 8 8 C7.4225 7.690625 6.845 7.38125 6.25 7.0625 C4.15705816 6.07416636 2.25464725 5.4831387 0 5 C0 3.35 0 1.7 0 0 Z " fill="#447659" transform="translate(406,130)"/>
<path d="M0 0 C4.42857143 5.14285714 4.42857143 5.14285714 5 9 C3.68 8.67 2.36 8.34 1 8 C0.67 5.36 0.34 2.72 0 0 Z " fill="#313536" transform="translate(431,157)"/>
<path d="M0 0 C3.6875 0.875 3.6875 0.875 7 2 C5.375 3.125 5.375 3.125 3 4 C-0.25 3.125 -0.25 3.125 -3 2 C-2.01 1.34 -1.02 0.68 0 0 Z " fill="#C53E49" transform="translate(401,151)"/>
<path d="M0 0 C1.485 0.99 1.485 0.99 3 2 C3.1875 4.625 3.1875 4.625 3 7 C2.01 6.67 1.02 6.34 0 6 C-0.75 4.0625 -0.75 4.0625 -1 2 C-0.67 1.34 -0.34 0.68 0 0 Z " fill="#6D1B23" transform="translate(404,141)"/>
<path d="M0 0 C2.96175123 0.61277612 4.38058783 1.25372522 7 3 C6.67 3.99 6.34 4.98 6 6 C3.97945196 4.35830472 1.97956942 2.69088222 0 1 C0 0.67 0 0.34 0 0 Z " fill="#1B2E29" transform="translate(421,140)"/>
<path d="M0 0 C2.0625 2.3125 2.0625 2.3125 4 5 C3.67 5.99 3.34 6.98 3 8 C0.9375 6.25 0.9375 6.25 -1 4 C-0.75 1.75 -0.75 1.75 0 0 Z " fill="#D73C40" transform="translate(398,135)"/>
<path d="M0 0 C0.99 0 1.98 0 3 0 C3.66 1.98 4.32 3.96 5 6 C3.68 5.67 2.36 5.34 1 5 C0.67 3.35 0.34 1.7 0 0 Z " fill="#E53B44" transform="translate(395,146)"/>
<path d="M0 0 C3.53586014 3.17320782 5.58578031 5.16743695 6 10 C3.25722422 6.80009492 1.3697164 3.99500618 0 0 Z " fill="#87181D" transform="translate(392,120)"/>
</svg>
