<svg xmlns="http://www.w3.org/2000/svg" xmlns:xlink="http://www.w3.org/1999/xlink" id="Layer_1" x="0px" y="0px" width="110.44px" height="106.56px" viewBox="0 0 110.44 106.56" xml:space="preserve"><rect x="19.038" y="33.172" fill="none" stroke="#BE7968" stroke-width="2.425" stroke-linejoin="round" stroke-miterlimit="10" width="12.535" height="27.313"></rect><rect x="73.204" y="10.831" fill="none" stroke="#BE7968" stroke-width="2.425" stroke-linejoin="round" stroke-miterlimit="10" width="12.534" height="19.484"></rect><rect x="37.094" y="20.148" fill="none" stroke="#BE7968" stroke-width="2.425" stroke-linejoin="round" stroke-miterlimit="10" width="12.535" height="40.336"></rect><rect x="55.149" y="1.597" fill="none" stroke="#BE7968" stroke-width="2.425" stroke-linejoin="round" stroke-miterlimit="10" width="12.534" height="44.593"></rect><path fill="none" stroke="#BE7968" stroke-width="2.425" stroke-linejoin="round" stroke-miterlimit="10" d="M108.673,42.447 c-0.225-1.881-0.228-3.761-0.062-5.646c0.053-0.582,0.039-1.174,0.003-1.76c-0.043-0.723-0.174-1.442-0.208-2.166 c-0.054-1.25-0.061-2.5-0.087-3.75c-0.028-0.083-0.062-0.164-0.091-0.246l0.032-0.106c-0.099-0.097-0.2-0.193-0.298-0.289 c-0.036,0.007-0.072,0.015-0.108,0.021c-0.269-0.458-0.7-0.402-1.131-0.356c-0.137-0.012-0.276-0.025-0.279-0.025 c-0.282-0.262-0.481-0.446-0.681-0.631c-0.129,0.02-0.259,0.042-0.387,0.063c-0.091-0.015-0.183-0.03-0.274-0.045 c-0.279,0.076-0.328-0.092-0.332-0.312l0.004-0.009c-0.02-0.043-0.037-0.085-0.058-0.127c-0.224-0.225-0.445-0.449-0.668-0.674 h-0.579c0.127-0.708-0.366-1.464,0.287-2.099c0.039-0.095,0.078-0.19,0.118-0.286c0.01-0.121,0.017-0.242,0.025-0.361 c-0.163-0.259-0.326-0.516-0.49-0.774c-0.314-0.336-0.278-0.779-0.06-1.059c0.543-0.701,0.496-1.484,0.475-2.274 c-0.013-0.567,0.05-1.105,0.389-1.586c0.06-0.084,0.127-0.226,0.098-0.3c-0.213-0.49-0.427-0.982-0.697-1.442 c-0.072-0.127-0.329-0.178-0.509-0.199c-0.232-0.026-0.999,0.646-1.046,0.876c-0.142,0.679-0.219,1.379-0.438,2.031 c-0.31,0.929-0.715,1.825-1.099,2.728c-0.157,0.377-0.351,0.742-0.553,1.099c-0.166,0.299-0.395,0.564-0.549,0.87 c-0.237,0.482-0.537,0.889-1.044,1.122c-0.17,0.077-0.303,0.227-0.462,0.328c-0.38,0.243-0.745,0.529-1.158,0.704 c-0.746,0.317-1.49,0.599-1.993,1.301c-0.238,0.329-0.593,0.57-0.86,0.882c-0.471,0.548-1.051,1.058-1.337,1.695 c-0.415,0.92-0.478,1.087-1.49,1.15c-0.126,0.009-0.272-0.033-0.377,0.016c-0.42,0.194-0.927,0.325-1.219,0.645 c-0.991,1.1-1.918,2.26-2.845,3.418c-0.651,0.814-1.251,1.671-1.891,2.496c-0.314,0.407-0.667,0.787-1.004,1.178 c-0.146,0.167-0.312,0.32-0.435,0.502c-0.4,0.604-0.783,1.22-1.183,1.828c-0.061,0.09-0.155,0.156-0.236,0.232 c-0.271,0.26-0.581,0.495-0.815,0.788c-0.425,0.529-0.772,1.123-1.22,1.629c-0.293,0.331-0.685,0.594-1.073,0.814 c-0.698,0.394-1.48,0.624-2.065,1.229c-0.318,0.326-0.685,0.606-1.05,0.887c-0.111,0.086-0.226,0.173-0.336,0.262 c-0.278,0.222-0.566,0.427-0.852,0.64c-0.52,0.045-0.888,0.25-1.023,0.809c-0.094,0.385-0.27,0.749-0.419,1.154 c-0.685-0.66-0.949-0.575-1.401-0.013c-0.068,0.086-0.151,0.163-0.239,0.23c-0.365,0.287-0.486,0.646-0.475,1.117 c0.03,1.12-0.219,2.188-0.683,3.217c-0.179,0.395-0.269,0.839-0.337,1.271c-0.062,0.38-0.204,0.561-0.608,0.555 c-0.333-0.004-0.665,0.064-0.998,0.104c-0.011,0.052-0.02,0.101-0.028,0.152c0.38,0.234,0.762,0.466,1.144,0.694 c0.041,0.186,0.081,0.371,0.122,0.558c-0.259,0.157-0.519,0.315-0.78,0.472c-0.095,0.036-0.189,0.07-0.286,0.106 c-0.194,0.066-0.386,0.155-0.587,0.188c-0.498,0.087-0.65,0.323-0.485,0.823c0.089,0.271-0.067,0.477-0.388,0.533 c-0.124,0.021-0.287,0.127-0.335,0.236c-0.254,0.594-0.457,1.211-0.721,1.803c-0.268,0.593-0.663,1.114-1.34,1.248 c-0.788,0.156-1.588,0.267-2.388,0.339c-0.29,0.026-0.647-0.032-0.884-0.188c-0.631-0.42-1.246-0.879-1.55-1.628 c-0.121-0.296-0.368-0.402-0.663-0.258c-0.224,0.109-0.432,0.255-0.629,0.406c-0.22,0.17-0.182,0.347,0.039,0.498 c0.416,0.286,0.852,0.554,1.246,0.87c0.311,0.251,0.579,0.56,0.849,0.855c0.056,0.064,0.076,0.25,0.029,0.294 c-0.372,0.355-0.721,0.773-1.161,1.018c-0.823,0.453-1.702,0.821-2.572,1.189c-0.825,0.35-1.66,0.697-2.512,0.976 c-1.059,0.344-2.137,0.102-3.209,0.006c-0.869-0.077-1.72-0.168-2.492,0.447c-0.511,0.407-1.646,0.156-2.063-0.339 c-0.464-0.558-1-1.098-1.73-1.173c-0.823-0.086-1.667,0.006-2.501,0.042c-0.194,0.01-0.418,0.063-0.571,0.174 c-0.957,0.69-2.037,0.577-2.838-0.274c-0.386-0.411-0.813-0.805-1.286-1.104c-0.033-0.022-0.063-0.035-0.095-0.053 c-0.425-0.229-0.683-0.073-0.925,0.406c-0.056,0.114-0.169,0.267-0.269,0.278c-0.735,0.083-1.477,0.135-2.215,0.193 c-0.101-0.056-0.201-0.112-0.302-0.172c-0.011-0.02-0.016-0.041-0.014-0.065c-0.086-0.12-0.173-0.24-0.259-0.358 c-0.159,0.043-0.32,0.085-0.479,0.129c-0.274,0.159-0.539,0.436-0.822,0.455c-0.798,0.061-1.6,0.009-2.401,0.008 c-0.357-0.002-0.714,0.012-1.071,0.02c-1.43-0.729-0.853-0.348-1.277-0.342c-0.657,0.008-1.097-0.29-1.521-0.712 c-0.278-0.276-0.647-0.555-1.004-0.343c-0.218,0.131-0.321,0.547-0.365,0.851c-0.045,0.31-0.159,0.487-0.433,0.612 c-0.589,0.269-1.174,0.548-1.754,0.839c-0.163,0.082-0.302,0.212-0.448,0.325c-0.282,0.224-0.541,0.484-0.846,0.667 c-0.718,0.429-1.455,0.827-2.193,1.222c-0.344,0.182-0.704,0.334-1.066,0.474c-0.233,0.089-0.487,0.132-0.731,0.19 c-1.252,0.301-2.495,0.446-3.708-0.174c-0.103-0.051-0.323-0.033-0.396,0.042c-0.448,0.471-0.745,0.44-1.06-0.136 c-0.216-0.405-0.502-0.641-1.003-0.465c-0.186,0.065-0.406,0.073-0.606,0.051c-0.463-0.052-0.922-0.207-1.364,0.121 C9,68.897,8.811,68.889,8.68,68.854c-0.594-0.148-1.175-0.355-1.775-0.468c-0.39-0.073-0.517-0.244-0.555-0.622 c-0.107-1.082-0.008-2.196-0.468-3.228c-0.042-0.1,0.009-0.25,0.035-0.372c0.114-0.54,0.309-1.074,0.338-1.619 c0.057-1.057,0.066-1.043-0.854-0.886c-0.098,0.073-0.195,0.145-0.293,0.216c-0.075,0.414-0.138,0.831-0.235,1.239 c-0.042,0.182-0.155,0.35-0.301,0.66c-0.183-0.438-0.306-0.732-0.43-1.027c0.008-0.03,0.011-0.059,0.009-0.091 c-0.123-0.234-0.248-0.471-0.417-0.79C3.641,62.963,3.532,63.152,3,63.238c-0.028,0.006-0.056,0.016-0.084,0.029 c-0.016-0.268-0.032-0.535-0.048-0.8c0.006-0.073,0.014-0.144,0.02-0.218c0.006-0.04,0.014-0.08,0.021-0.118 c0.009-0.085,0.018-0.168,0.027-0.252c0.017-0.278,0.034-0.558,0.049-0.835c-0.008-0.105-0.018-0.212-0.028-0.319 c-0.013-0.088-0.027-0.182-0.039-0.272c0.007-0.031,0.013-0.066,0.021-0.097c-0.257-0.345-0.514-0.686-0.773-1.027 c-0.056,0.025-0.112,0.048-0.168,0.074c-0.034,0.222-0.066,0.441-0.101,0.661c0.026,0.038,0.054,0.071,0.08,0.107 c0.027,0.148,0.041,0.303,0.084,0.449c0.167,0.567,0.27,1.126-0.174,1.629c-0.169,0.19-0.215,0.373-0.062,0.635 c0.114,0.194,0.083,0.473,0.116,0.715c0.012,0.03,0.023,0.062,0.034,0.093c-0.04,0.159-0.079,0.317-0.119,0.477 c0.012,0.033,0.022,0.066,0.034,0.099c-0.072,0.613-0.529,1.171,0.063,1.841c0.994,1.126,1.866,2.36,2.795,3.543 c2.095,2.668,4.197,5.327,6.291,7.995c0.116,0.147,0.233,0.298,0.349,0.445c1.584,2.019,3.151,4.053,4.735,6.071 c1.398,1.782,2.818,3.549,4.217,5.331c1.391,1.768,2.766,3.551,4.158,5.318c0.118,0.152,0.299,0.315,0.477,0.348 c1.29,0.251,2.586,0.467,3.881,0.695l0.02,0.018l0.003,0.025l0.022-0.006c0.466,0.087,0.934,0.174,1.401,0.264 c1.114,0.214,2.229,0.427,3.344,0.644c0.147,0.027,0.292,0.058,0.438,0.089l0.031-0.011c0.193,0.037,0.384,0.072,0.577,0.109 l0.027-0.034c0.152,0.007,0.306,0.013,0.458,0.02c0.061,0.037,0.124,0.074,0.185,0.111c0.755,0.124,1.511,0.247,2.266,0.372 c0.197,0.031,0.394,0.063,0.589,0.096c-0.008-0.088-0.012-0.172-0.011-0.255c-0.001,0.083,0.003,0.167,0.011,0.255 c0.078,0.025,0.156,0.05,0.232,0.076c0.275,0.038,0.55,0.078,0.825,0.117c0.238,0.065,0.477,0.126,0.716,0.191 c1.639,0.276,3.282,0.54,4.919,0.832c3.682,0.655,7.363,1.323,11.043,1.991c3.05,0.551,6.099,1.12,9.146,1.673 c1.56,0.283,3.123,0.539,4.685,0.82c3.088,0.557,6.178,1.118,9.265,1.691c0.268,0.05,0.431,0.002,0.62-0.192 c1.107-1.146,2.257-2.253,3.343-3.422c0.464-0.5,1.121-0.865,1.18-1.705c0.07-1.027,0.365-2.041,0.372-3.063 c0.008-1.248-0.16-2.503-0.306-3.745c-0.05-0.433,0.026-0.791,0.254-1.116c0.253-0.365,0.347-0.75,0.241-1.169 c-0.093-0.384-0.001-0.716,0.188-1.037c0.272-0.466,0.522-0.945,0.813-1.399c1.301-2.066,2.186-4.274,2.383-6.734 c0.02-0.255,0.094-0.543,0.241-0.742c0.243-0.331,0.583-0.582,0.847-0.897c0.338-0.402,0.904-0.7,0.709-1.382 c0.028-0.23,0.056-0.46,0.082-0.692c0.033-0.294,0.069-0.59,0.104-0.883c0.058-0.266,0.118-0.527,0.174-0.794 c0.269-0.352,0.517-0.72,0.807-1.051c0.377-0.434,0.609-0.88,0.556-1.493c-0.061-0.709-0.034-1.429-0.004-2.143 c0.012-0.341-0.119-0.526-0.392-0.688c-0.452-0.262-0.943-0.494-1.304-0.854c-0.192-0.19-0.162-0.62-0.181-0.945 c-0.004-0.042,0.304-0.126,0.474-0.15c0.666-0.104,1.389,0.031,1.894-0.626c0.559-0.728,1.384-0.824,2.229-0.791 c0.177,0.007,0.396,0.059,0.521,0.172c0.271,0.25,0.503,0.27,0.803,0.061c0.394-0.272,0.802-0.322,1.237-0.044 c0.122,0.078,0.337,0.069,0.485,0.025c1.14-0.335,2.272-0.688,3.405-1.039c0.313-0.097,0.622-0.205,0.977-0.324 c-0.529-1.38-1.031-2.688-1.568-4.089c-0.503,0.158-1.033,0.214-1.43,0.477c-0.368,0.241-0.673,0.294-1.058,0.176 c-0.225-0.068-0.45-0.161-0.681-0.201c-0.749-0.123-1.061-0.829-0.528-1.438c0.629-0.727,0.861-1.561,0.743-2.504 c-0.007-0.063,0.018-0.135-0.003-0.189c-0.113-0.264-0.171-0.614-0.373-0.764c-0.315-0.235-0.376-0.489-0.389-0.844 c-0.034-0.833-0.12-1.667-0.169-2.501c-0.011-0.148-0.013-0.377,0.077-0.44c0.318-0.232,0.273-0.542,0.279-0.858 c0.002-0.137,0.008-0.333,0.095-0.398c0.525-0.406,0.508-0.93,0.389-1.498c-0.056-0.261-0.075-0.531-0.106-0.797 c-0.128-0.956-0.253-1.912-0.377-2.869c-0.026-0.203-0.045-0.406-0.083-0.607c-0.019-0.099-0.026-0.192-0.023-0.28 c0.008-0.239,0.101-0.445,0.327-0.641c0.541-0.462,1.025-0.988,1.55-1.471c0.13-0.119,0.316-0.225,0.489-0.244 c0.646-0.074,1.293-0.125,1.942-0.149c0.132-0.005,0.304,0.11,0.394,0.221c0.541,0.67,0.267,1.428,0.262,2.191 c-0.416-0.08-0.767-0.146-1.116-0.213c-0.023,0.042-0.046,0.085-0.066,0.127c0.034,0.06,0.069,0.119,0.104,0.179 c0.17,0.299,0.343,0.6,0.515,0.901c0.219,0.487,0.449,0.968,0.648,1.461c0.224,0.551,0.557,0.891,1.207,0.767 c0.118-0.021,0.247,0.051,0.372,0.062c0.441,0.039,0.901,0.126,1.088-0.459c0.028-0.094,0.161-0.15,0.224-0.24 c0.154-0.219,0.348-0.431,0.429-0.679c0.131-0.403,0.274-0.738,0.763-0.773c0.084-0.007,0.161-0.082,0.245-0.125 c0.222-0.112,0.459-0.202,0.663-0.34c0.269-0.179,0.518-0.385,0.777-0.575c0.089-0.067,0.183-0.131,0.274-0.192 c0.638-0.412,0.736-0.643,0.523-1.381c-0.124-0.433-0.131-0.81,0.372-1.031c0.098-0.042,0.195-0.214,0.193-0.326 C108.765,43.165,108.714,42.805,108.673,42.447z"></path></svg>