<svg xmlns="http://www.w3.org/2000/svg" xmlns:xlink="http://www.w3.org/1999/xlink" id="Layer_1" x="0px" y="0px" width="348.819px" height="111.811px" viewBox="0 0 348.819 111.811" xml:space="preserve"><path fill="#333333" d="M231.91,41.474c-2.228-1.154-4.647-2.075-7.26-2.763c-1.274-0.335-2.498-0.699-3.682-1.087 c0.189,1.44,0.32,2.898,0.32,4.39c0,0.404-0.047,0.796-0.061,1.197c1.178,0.384,2.37,0.767,3.504,1.151 c1.786,0.606,3.397,1.334,4.827,2.187c1.429,0.852,2.57,1.939,3.425,3.258c0.852,1.32,1.278,3,1.278,5.034 c0,1.759-0.345,3.341-1.032,4.743c-0.688,1.403-1.621,2.598-2.804,3.589c-1.183,0.99-2.573,1.762-4.167,2.31 c-1.596,0.552-3.301,0.826-5.116,0.826c-2.915,0-5.514-0.605-7.795-1.815c-0.171-0.091-0.321-0.209-0.487-0.306 c-1.263,1.429-2.632,2.759-4.119,3.954c0.701,0.411,1.42,0.784,2.172,1.096c3.244,1.347,6.791,2.021,10.643,2.021 c2.365,0,4.648-0.359,6.85-1.073c2.198-0.713,4.137-1.774,5.815-3.176c1.677-1.402,3.011-3.121,4-5.157 c0.992-2.034,1.486-4.372,1.486-7.012c0-3.63-0.742-6.477-2.229-8.54C235.994,44.239,234.138,42.629,231.91,41.474"></path><path fill="#333333" d="M212.073,18.973c0.437-0.503,0.905-0.975,1.438-1.383c1.184-0.908,2.571-1.595,4.168-2.063 c1.594-0.466,3.271-0.701,5.031-0.701c2.53,0,4.717,0.483,6.559,1.443c1.844,0.963,3.453,2.408,4.828,4.331l4.703-3.382 c-1.98-2.639-4.332-4.523-7.054-5.651c-2.724-1.127-5.683-1.691-8.87-1.691c-2.475,0-4.84,0.344-7.096,1.03 c-2.255,0.689-4.248,1.707-5.98,3.054c-0.589,0.458-1.121,0.968-1.627,1.501C209.564,16.531,210.868,17.702,212.073,18.973"></path><path fill="#333333" d="M266.564,65.937c-0.965,0.247-1.911,0.372-2.848,0.372c-1.65,0-2.943-0.466-3.879-1.401 c-0.936-0.937-1.402-2.257-1.402-3.961V36.111h10.891v-4.454h-10.891V20.684h-4.948v10.974h-8.251v4.454h8.251v24.835 c0,1.375,0.178,2.655,0.536,3.836c0.357,1.183,0.92,2.216,1.691,3.094c0.77,0.881,1.785,1.582,3.053,2.104 c1.263,0.523,2.775,0.784,4.537,0.784c0.936,0,2.006-0.139,3.217-0.412c1.209-0.275,2.281-0.579,3.217-0.908l-0.412-4.455 C268.447,65.375,267.525,65.69,266.564,65.937"></path><path fill="#333333" d="M307.937,62.926c-0.055-1.265-0.096-2.641-0.125-4.127c-0.027-1.484-0.039-3.162-0.039-5.032v-9.322 c0-4.84-1.377-8.347-4.125-10.519c-2.752-2.173-6.437-3.26-11.056-3.26c-2.475,0-5.063,0.453-7.757,1.361 c-2.695,0.908-4.95,2.242-6.766,4.002l2.889,3.382c3.354-2.859,7.232-4.29,11.634-4.29c3.078,0,5.638,0.716,7.673,2.146 c2.033,1.431,3.051,3.794,3.051,7.095v2.309h-5.773c-1.872,0-4.03,0.125-6.477,0.372c-2.448,0.248-4.758,0.799-6.932,1.65 c-2.172,0.854-4.001,2.133-5.484,3.838c-1.486,1.704-2.229,4.014-2.229,6.929c0,2.035,0.398,3.768,1.196,5.197 c0.797,1.433,1.827,2.6,3.094,3.507c1.263,0.908,2.694,1.568,4.29,1.981c1.594,0.412,3.217,0.619,4.868,0.619 c3.243,0,5.926-0.578,8.043-1.733c2.118-1.155,3.891-2.97,5.321-5.445h0.166c0,2.256,0.164,4.319,0.494,6.187h4.621 c-0.164-1.1-0.289-2.199-0.371-3.299C308.06,65.374,307.99,64.191,307.937,62.926 M303.316,53.189c0,1.596-0.191,3.178-0.576,4.746 c-0.387,1.567-1.088,2.969-2.105,4.206c-1.017,1.238-2.379,2.242-4.083,3.013c-1.705,0.77-3.877,1.154-6.518,1.154 c-1.046,0-2.077-0.151-3.095-0.453c-1.018-0.303-1.938-0.742-2.764-1.321c-0.824-0.578-1.498-1.32-2.021-2.227 c-0.522-0.908-0.782-1.94-0.782-3.095c0-1.649,0.466-3.023,1.401-4.124c0.935-1.1,2.188-1.981,3.756-2.641 c1.566-0.66,3.326-1.126,5.279-1.402c1.951-0.274,3.973-0.413,6.063-0.413h5.444V53.189z"></path><path fill="#333333" d="M339.619,64.988c-0.879,0.386-1.801,0.701-2.763,0.948c-0.963,0.248-1.911,0.372-2.847,0.372 c-1.65,0-2.943-0.466-3.878-1.402c-0.937-0.936-1.402-2.256-1.402-3.961V36.111h10.89v-4.454h-10.89V20.685h-4.95v10.973h-8.25 v4.454h8.25v24.834c0,1.376,0.178,2.655,0.536,3.837c0.357,1.183,0.921,2.215,1.692,3.094c0.768,0.881,1.785,1.582,3.051,2.103 c1.266,0.523,2.777,0.785,4.54,0.785c0.935,0,2.007-0.139,3.217-0.413c1.208-0.276,2.281-0.578,3.218-0.907L339.619,64.988z"></path><path fill="#23B5C2" d="M182.298,25.468h-1.333c-0.729,0-1.322-0.593-1.322-1.322s0.593-1.322,1.322-1.322h1.333 c0.73,0,1.322,0.592,1.322,1.322S183.028,25.468,182.298,25.468"></path><path fill="#23B5C2" d="M195.052,31.423h-22.237c-0.729,0-1.322-0.593-1.322-1.321c0-0.73,0.593-1.322,1.322-1.322h22.237 c0.729,0,1.322,0.592,1.322,1.322C196.375,30.83,195.781,31.423,195.052,31.423"></path><path fill="#23B5C2" d="M175.01,37.38h-5.411c-0.73,0-1.322-0.593-1.322-1.322c0-0.73,0.592-1.322,1.322-1.322h5.411 c0.729,0,1.322,0.592,1.322,1.322C176.332,36.788,175.739,37.38,175.01,37.38"></path><path fill="#23B5C2" d="M206.878,43.336H168.65c-0.729,0-1.322-0.593-1.322-1.322c0-0.73,0.592-1.322,1.322-1.322h38.229 c0.729,0,1.322,0.592,1.322,1.322C208.201,42.743,207.608,43.336,206.878,43.336"></path><path fill="#23B5C2" d="M191.408,49.292h-21.81c-0.729,0-1.322-0.593-1.322-1.322c0-0.73,0.593-1.322,1.322-1.322h21.81 c0.73,0,1.322,0.592,1.322,1.322C192.73,48.699,192.138,49.292,191.408,49.292"></path><path fill="#23B5C2" d="M180.476,55.249h-7.658c-0.73,0-1.322-0.593-1.322-1.322c0-0.73,0.592-1.322,1.322-1.322h7.658 c0.73,0,1.322,0.592,1.322,1.322C181.798,54.656,181.206,55.249,180.476,55.249"></path><path fill="#23B5C2" d="M190.743,61.204h-9.778c-0.729,0-1.322-0.593-1.322-1.321c0-0.73,0.593-1.322,1.322-1.322h9.778 c0.729,0,1.322,0.592,1.322,1.322C192.065,60.611,191.472,61.204,190.743,61.204"></path><path fill="#333333" d="M194.563,25.468h-8.621c-0.73,0-1.322-0.593-1.322-1.322s0.592-1.322,1.322-1.322h8.621 c0.729,0,1.322,0.592,1.322,1.322S195.292,25.468,194.563,25.468"></path><path fill="#333333" d="M202.71,31.423h-4.014c-0.73,0-1.322-0.593-1.322-1.321c0-0.73,0.592-1.322,1.322-1.322h4.014 c0.73,0,1.322,0.592,1.322,1.322C204.033,30.83,203.441,31.423,202.71,31.423"></path><path fill="#333333" d="M205.931,37.38h-27.278c-0.729,0-1.322-0.593-1.322-1.322c0-0.73,0.593-1.322,1.322-1.322h27.278 c0.73,0,1.322,0.592,1.322,1.322C207.253,36.788,206.662,37.38,205.931,37.38"></path><path fill="#333333" d="M205.931,49.292h-10.879c-0.73,0-1.322-0.593-1.322-1.322c0-0.73,0.592-1.322,1.322-1.322h10.879 c0.73,0,1.322,0.592,1.322,1.322C207.253,48.699,206.662,49.292,205.931,49.292"></path><path fill="#333333" d="M202.71,55.249H184.12c-0.729,0-1.322-0.593-1.322-1.322c0-0.73,0.593-1.322,1.322-1.322h18.591 c0.73,0,1.322,0.592,1.322,1.322C204.033,54.656,203.441,55.249,202.71,55.249"></path><path fill="#333333" d="M194.563,61.204h-0.176c-0.729,0-1.322-0.593-1.322-1.321c0-0.73,0.593-1.322,1.322-1.322h0.176 c0.729,0,1.322,0.592,1.322,1.322C195.885,60.611,195.292,61.204,194.563,61.204"></path><path fill="#23B5C2" d="M43.63,46.757c0,1.815-0.289,3.493-0.867,5.032c-0.577,1.541-1.389,2.875-2.434,4.002 c-1.045,1.128-2.283,2.009-3.712,2.64c-1.431,0.632-2.999,0.949-4.703,0.949c-1.706,0-3.287-0.316-4.744-0.949 c-1.458-0.631-2.71-1.512-3.754-2.64c-1.045-1.127-1.856-2.461-2.434-4.002c-0.577-1.539-0.866-3.217-0.866-5.032V11.362H7.245 v35.89c0,3.464,0.523,6.656,1.568,9.571c1.044,2.914,2.599,5.445,4.661,7.589c2.063,2.146,4.634,3.824,7.715,5.034 c3.08,1.208,6.654,1.815,10.725,1.815c4.015,0,7.562-0.607,10.643-1.815c3.08-1.21,5.651-2.888,7.715-5.034 c2.062-2.144,3.615-4.675,4.661-7.589c1.044-2.915,1.567-6.107,1.567-9.571v-35.89H43.63V46.757z"></path><path fill="#23B5C2" d="M87.604,11.361L62.357,69.774h14.192l4.867-12.375h22.688l5.034,12.375h14.52L98.246,11.361H87.604z  M85.459,46.51l7.095-18.151l7.178,18.151H85.459z"></path><path fill="#23B5C2" d="M158.238,57.894h-15.356V46.013H154.5c-0.156-1.314-0.26-2.643-0.26-3.999c0-2.719,0.359-5.349,0.97-7.88 h-12.328V23.243h17.104c3.512-5.188,8.449-9.32,14.236-11.881h-44.21v58.413h38.958C164.504,66.746,160.811,62.667,158.238,57.894"></path><path fill="#333333" d="M15.902,85.206c-0.713-1.045-1.75-1.567-3.114-1.567c-0.423,0-0.84,0.056-1.249,0.17 c-0.409,0.113-0.776,0.288-1.102,0.522c-0.326,0.235-0.588,0.538-0.784,0.91c-0.197,0.371-0.295,0.806-0.295,1.306 c0,0.728,0.204,1.292,0.613,1.692c0.409,0.403,0.917,0.732,1.523,0.989c0.606,0.258,1.268,0.487,1.988,0.692 c0.719,0.204,1.382,0.478,1.988,0.818s1.113,0.792,1.522,1.352c0.409,0.562,0.614,1.326,0.614,2.295 c0,0.727-0.156,1.382-0.466,1.965c-0.311,0.584-0.719,1.072-1.227,1.466c-0.507,0.394-1.076,0.697-1.704,0.909 c-0.629,0.212-1.261,0.318-1.897,0.318c-0.985,0-1.92-0.186-2.807-0.557c-0.886-0.371-1.64-0.98-2.26-1.829l1.499-1.067 c0.348,0.59,0.83,1.063,1.449,1.419c0.62,0.356,1.352,0.534,2.198,0.534c0.407,0,0.815-0.063,1.223-0.193 c0.407-0.128,0.774-0.318,1.098-0.568c0.325-0.249,0.593-0.557,0.805-0.92c0.211-0.364,0.317-0.78,0.317-1.25 c0-0.56-0.118-1.026-0.353-1.397c-0.235-0.371-0.545-0.682-0.931-0.931c-0.386-0.251-0.826-0.459-1.318-0.626 c-0.493-0.166-1-0.333-1.522-0.499c-0.523-0.167-1.031-0.356-1.523-0.569c-0.492-0.212-0.931-0.479-1.318-0.806 c-0.386-0.326-0.697-0.735-0.932-1.227c-0.234-0.493-0.351-1.109-0.351-1.852c0-0.773,0.147-1.446,0.442-2.022 c0.296-0.576,0.69-1.053,1.182-1.432c0.492-0.378,1.049-0.659,1.67-0.841c0.621-0.181,1.257-0.273,1.908-0.273 c0.91,0,1.735,0.144,2.477,0.433c0.743,0.288,1.432,0.795,2.068,1.522L15.902,85.206z"></path><path fill="#333333" d="M21.424,93.728c0.045,0.53,0.173,1.03,0.386,1.499c0.211,0.47,0.492,0.875,0.84,1.216 c0.349,0.341,0.75,0.609,1.204,0.807c0.455,0.196,0.947,0.294,1.478,0.294c0.803,0,1.495-0.184,2.079-0.556 c0.582-0.371,1.026-0.799,1.328-1.284l1.16,0.955c-0.636,0.803-1.337,1.378-2.102,1.726c-0.765,0.348-1.587,0.523-2.465,0.523 c-0.788,0-1.52-0.141-2.193-0.42c-0.674-0.28-1.253-0.671-1.738-1.17c-0.485-0.501-0.868-1.091-1.148-1.773 c-0.281-0.681-0.42-1.424-0.42-2.227s0.136-1.545,0.408-2.226c0.273-0.682,0.652-1.273,1.137-1.773 c0.485-0.499,1.052-0.889,1.704-1.17c0.651-0.28,1.356-0.42,2.113-0.42c0.803,0,1.523,0.145,2.158,0.433 c0.637,0.288,1.171,0.67,1.602,1.146c0.433,0.478,0.762,1.038,0.989,1.681c0.227,0.645,0.341,1.33,0.341,2.057v0.682H21.424z  M28.649,92.5c0-1.014-0.303-1.836-0.909-2.465c-0.606-0.629-1.455-0.943-2.545-0.943c-0.485,0-0.954,0.095-1.409,0.284 c-0.454,0.19-0.852,0.443-1.193,0.761c-0.341,0.318-0.613,0.682-0.818,1.091c-0.204,0.409-0.306,0.833-0.306,1.272H28.649z"></path><path fill="#333333" d="M39.829,92.114v-0.273c0-1.833-0.909-2.749-2.727-2.749c-1.242,0-2.326,0.417-3.249,1.249l-0.909-1.066 c1-1.03,2.5-1.546,4.499-1.546c0.515,0,1.011,0.076,1.488,0.228c0.477,0.152,0.89,0.382,1.239,0.692 c0.348,0.311,0.628,0.701,0.84,1.171c0.213,0.47,0.318,1.031,0.318,1.681v4.749c0,0.409,0.02,0.838,0.057,1.284 c0.038,0.447,0.08,0.815,0.125,1.102h-1.454c-0.045-0.257-0.079-0.538-0.102-0.84c-0.023-0.304-0.035-0.599-0.035-0.887h-0.045 c-0.44,0.713-0.958,1.224-1.556,1.534c-0.599,0.31-1.329,0.466-2.193,0.466c-0.47,0-0.924-0.065-1.363-0.193 c-0.44-0.129-0.829-0.326-1.17-0.591c-0.341-0.265-0.614-0.591-0.818-0.978c-0.205-0.386-0.307-0.836-0.307-1.352 c0-0.863,0.223-1.541,0.67-2.034c0.446-0.492,1.007-0.86,1.681-1.102c0.675-0.242,1.394-0.394,2.159-0.454 c0.765-0.061,1.466-0.091,2.102-0.091H39.829z M39.056,93.341c-0.378,0-0.852,0.02-1.42,0.058c-0.568,0.037-1.113,0.128-1.636,0.271 c-0.523,0.145-0.969,0.368-1.34,0.671c-0.372,0.302-0.557,0.72-0.557,1.25c0,0.349,0.072,0.647,0.216,0.896 c0.143,0.251,0.336,0.455,0.579,0.614c0.242,0.16,0.511,0.273,0.807,0.341c0.295,0.068,0.594,0.102,0.897,0.102 c0.546,0,1.019-0.09,1.42-0.271c0.402-0.183,0.739-0.428,1.012-0.738c0.273-0.311,0.472-0.675,0.602-1.091 c0.128-0.417,0.193-0.86,0.193-1.33v-0.772H39.056z"></path><path fill="#333333" d="M44.964,91.318c0-0.469-0.012-0.946-0.034-1.431c-0.023-0.485-0.042-1.114-0.057-1.886h1.477v1.976h0.045 c0.107-0.287,0.258-0.564,0.455-0.829c0.196-0.265,0.435-0.503,0.716-0.715c0.279-0.212,0.605-0.383,0.977-0.512 c0.37-0.128,0.791-0.193,1.261-0.193c0.423,0,0.795,0.046,1.113,0.136l-0.295,1.478c-0.197-0.075-0.485-0.113-0.863-0.113 c-0.577,0-1.068,0.11-1.478,0.33c-0.409,0.219-0.75,0.499-1.022,0.84s-0.474,0.708-0.603,1.102 c-0.128,0.394-0.193,0.773-0.193,1.136v5.999h-1.499V91.318z"></path><path fill="#333333" d="M59.688,90.5c-0.258-0.393-0.617-0.727-1.08-0.999c-0.462-0.273-0.988-0.409-1.579-0.409 c-0.621-0.016-1.178,0.083-1.67,0.295c-0.492,0.212-0.913,0.508-1.261,0.886c-0.348,0.379-0.613,0.829-0.795,1.352 c-0.182,0.523-0.273,1.087-0.273,1.693s0.091,1.17,0.273,1.693c0.182,0.521,0.447,0.973,0.795,1.352s0.769,0.674,1.261,0.886 c0.492,0.212,1.049,0.311,1.67,0.295c0.591,0,1.117-0.137,1.579-0.409c0.463-0.272,0.822-0.605,1.08-0.999l1.227,0.931 c-0.531,0.622-1.129,1.079-1.795,1.375c-0.667,0.295-1.363,0.45-2.091,0.466c-0.863,0.014-1.644-0.118-2.34-0.398 c-0.697-0.281-1.292-0.67-1.784-1.171c-0.492-0.499-0.867-1.094-1.124-1.783c-0.259-0.689-0.387-1.436-0.387-2.238 s0.128-1.548,0.387-2.238c0.257-0.689,0.632-1.284,1.124-1.784c0.492-0.5,1.087-0.89,1.784-1.17c0.696-0.28,1.477-0.412,2.34-0.398 c0.728,0.015,1.424,0.171,2.091,0.466c0.666,0.296,1.264,0.754,1.795,1.374L59.688,90.5z"></path><path fill="#333333" d="M62.891,81.458h1.5v8.248h0.045c0.167-0.288,0.379-0.553,0.637-0.796c0.257-0.242,0.545-0.45,0.863-0.624 c0.318-0.174,0.655-0.31,1.011-0.409s0.708-0.148,1.056-0.148c1.364,0,2.372,0.36,3.023,1.079c0.651,0.72,0.977,1.746,0.977,3.079 v6.748h-1.5v-5.884c0-1.183-0.204-2.087-0.613-2.716c-0.409-0.628-1.167-0.942-2.273-0.942c-0.076,0-0.288,0.03-0.636,0.09 c-0.348,0.061-0.715,0.227-1.102,0.5c-0.386,0.273-0.731,0.682-1.034,1.227s-0.454,1.303-0.454,2.272v5.453h-1.5V81.458z"></path><polygon fill="#333333" points="76.865,101.816 75.366,101.816 76.888,96.477 78.728,96.477 "></polygon><polygon fill="#333333" points="93.385,96.181 93.43,96.181 98.702,82.547 100.474,82.547 94.203,98.635 92.567,98.635  86.455,82.547 88.273,82.547 "></polygon><path fill="#333333" d="M104.359,83.911c0,0.318-0.114,0.579-0.341,0.784c-0.227,0.204-0.477,0.306-0.75,0.306 c-0.272,0-0.522-0.102-0.75-0.306c-0.226-0.205-0.341-0.466-0.341-0.784c0-0.318,0.115-0.58,0.341-0.784 c0.228-0.204,0.478-0.307,0.75-0.307c0.273,0,0.523,0.103,0.75,0.307C104.246,83.331,104.359,83.593,104.359,83.911 M104.019,98.635 h-1.5V88.001h1.5V98.635z"></path><path fill="#333333" d="M113.266,90.523c-0.228-0.439-0.531-0.788-0.909-1.045c-0.379-0.257-0.841-0.386-1.386-0.386 c-0.258,0-0.519,0.031-0.784,0.09c-0.265,0.061-0.504,0.156-0.716,0.285c-0.212,0.128-0.383,0.291-0.511,0.488 c-0.129,0.197-0.194,0.439-0.194,0.728c0,0.5,0.174,0.864,0.523,1.091c0.349,0.227,0.871,0.424,1.568,0.59l1.523,0.364 c0.741,0.167,1.359,0.504,1.851,1.012c0.492,0.507,0.739,1.139,0.739,1.897c0,0.576-0.117,1.071-0.352,1.488 c-0.236,0.417-0.546,0.758-0.932,1.022c-0.386,0.266-0.829,0.459-1.329,0.58s-1.008,0.182-1.523,0.182 c-0.818,0-1.579-0.156-2.283-0.466c-0.705-0.31-1.307-0.845-1.806-1.602l1.294-0.887c0.303,0.485,0.686,0.872,1.148,1.16 s1.011,0.431,1.647,0.431c0.303,0,0.606-0.034,0.909-0.102c0.303-0.068,0.572-0.174,0.807-0.318 c0.235-0.144,0.424-0.329,0.568-0.557c0.143-0.227,0.216-0.492,0.216-0.795c0-0.53-0.197-0.913-0.591-1.148 c-0.394-0.233-0.871-0.42-1.431-0.556l-1.455-0.341c-0.181-0.045-0.428-0.121-0.738-0.228c-0.311-0.105-0.614-0.265-0.909-0.478 c-0.296-0.211-0.549-0.488-0.761-0.829c-0.213-0.341-0.318-0.761-0.318-1.261c0-0.545,0.109-1.023,0.329-1.432 c0.219-0.409,0.515-0.742,0.887-1c0.37-0.257,0.791-0.451,1.261-0.58c0.469-0.128,0.954-0.193,1.454-0.193 c0.741,0,1.431,0.144,2.068,0.432c0.636,0.288,1.127,0.78,1.476,1.477L113.266,90.523z"></path><path fill="#333333" d="M124.99,98.635c-0.031-0.287-0.05-0.571-0.057-0.852c-0.008-0.28-0.011-0.565-0.011-0.852h-0.046 c-0.166,0.287-0.379,0.553-0.636,0.796c-0.257,0.241-0.546,0.45-0.863,0.624c-0.318,0.175-0.655,0.31-1.012,0.409 c-0.356,0.099-0.708,0.148-1.056,0.148c-1.363,0-2.371-0.36-3.021-1.08c-0.652-0.719-0.979-1.745-0.979-3.079v-6.748h1.501v5.885 c0,0.591,0.045,1.114,0.136,1.568c0.09,0.454,0.246,0.837,0.466,1.148c0.219,0.31,0.515,0.544,0.885,0.704 c0.372,0.159,0.838,0.238,1.398,0.238c0.076,0,0.288-0.03,0.636-0.09c0.348-0.061,0.716-0.228,1.102-0.501 c0.386-0.272,0.731-0.681,1.035-1.226c0.302-0.546,0.454-1.303,0.454-2.273v-5.453h1.499v8.293c0,0.289,0.012,0.653,0.035,1.091 c0.022,0.44,0.049,0.856,0.079,1.25H124.99z"></path><path fill="#333333" d="M136.761,92.114v-0.273c0-1.833-0.909-2.749-2.727-2.749c-1.242,0-2.326,0.417-3.249,1.249l-0.909-1.066 c1-1.03,2.5-1.546,4.499-1.546c0.515,0,1.011,0.076,1.488,0.228c0.477,0.152,0.89,0.382,1.239,0.692 c0.348,0.311,0.628,0.701,0.84,1.171c0.213,0.47,0.318,1.031,0.318,1.681v4.749c0,0.409,0.02,0.838,0.057,1.284 c0.038,0.447,0.08,0.815,0.125,1.102h-1.454c-0.045-0.257-0.079-0.538-0.102-0.84c-0.023-0.304-0.035-0.599-0.035-0.887h-0.045 c-0.44,0.713-0.958,1.224-1.556,1.534c-0.599,0.31-1.329,0.466-2.193,0.466c-0.47,0-0.924-0.065-1.363-0.193 c-0.44-0.129-0.829-0.326-1.17-0.591c-0.341-0.265-0.614-0.591-0.818-0.978c-0.205-0.386-0.307-0.836-0.307-1.352 c0-0.863,0.223-1.541,0.67-2.034c0.446-0.492,1.007-0.86,1.681-1.102c0.675-0.242,1.394-0.394,2.159-0.454 c0.765-0.061,1.466-0.091,2.102-0.091H136.761z M135.988,93.341c-0.378,0-0.852,0.02-1.42,0.058 c-0.568,0.037-1.113,0.128-1.636,0.271c-0.523,0.145-0.969,0.368-1.34,0.671c-0.372,0.302-0.557,0.72-0.557,1.25 c0,0.349,0.072,0.647,0.216,0.896c0.143,0.251,0.336,0.455,0.579,0.614c0.242,0.16,0.511,0.273,0.807,0.341 c0.295,0.068,0.594,0.102,0.897,0.102c0.545,0,1.019-0.09,1.42-0.271c0.402-0.183,0.739-0.428,1.012-0.738 c0.272-0.311,0.473-0.675,0.602-1.091c0.128-0.417,0.193-0.86,0.193-1.33v-0.772H135.988z"></path><rect x="142.078" y="81.458" fill="#333333" width="1.5" height="17.177"></rect><path fill="#333333" d="M149.372,83.911c0,0.318-0.114,0.579-0.341,0.784c-0.227,0.204-0.477,0.306-0.75,0.306 s-0.522-0.102-0.75-0.306c-0.227-0.205-0.341-0.466-0.341-0.784c0-0.318,0.114-0.58,0.341-0.784c0.228-0.204,0.477-0.307,0.75-0.307 s0.523,0.103,0.75,0.307C149.257,83.331,149.372,83.593,149.372,83.911 M149.03,98.635h-1.5V88.001h1.5V98.635z"></path><path fill="#333333" d="M158.279,90.523c-0.229-0.439-0.531-0.788-0.909-1.045c-0.379-0.257-0.841-0.386-1.386-0.386 c-0.258,0-0.519,0.031-0.784,0.09c-0.265,0.061-0.504,0.156-0.716,0.285c-0.212,0.128-0.383,0.291-0.512,0.488 c-0.128,0.197-0.193,0.439-0.193,0.728c0,0.5,0.174,0.864,0.522,1.091c0.349,0.227,0.871,0.424,1.568,0.59l1.523,0.364 c0.741,0.167,1.359,0.504,1.851,1.012c0.492,0.507,0.739,1.139,0.739,1.897c0,0.576-0.117,1.071-0.353,1.488 c-0.235,0.417-0.545,0.758-0.931,1.022c-0.386,0.266-0.829,0.459-1.329,0.58s-1.008,0.182-1.523,0.182 c-0.818,0-1.579-0.156-2.283-0.466c-0.705-0.31-1.307-0.845-1.806-1.602l1.294-0.887c0.303,0.485,0.687,0.872,1.148,1.16 s1.011,0.431,1.647,0.431c0.303,0,0.606-0.034,0.909-0.102c0.303-0.068,0.572-0.174,0.807-0.318 c0.235-0.144,0.424-0.329,0.568-0.557c0.143-0.227,0.216-0.492,0.216-0.795c0-0.53-0.197-0.913-0.591-1.148 c-0.394-0.233-0.871-0.42-1.431-0.556l-1.455-0.341c-0.181-0.045-0.428-0.121-0.738-0.228c-0.311-0.105-0.614-0.265-0.909-0.478 c-0.296-0.211-0.549-0.488-0.761-0.829c-0.213-0.341-0.318-0.761-0.318-1.261c0-0.545,0.109-1.023,0.329-1.432 c0.219-0.409,0.515-0.742,0.887-1c0.37-0.257,0.791-0.451,1.261-0.58c0.469-0.128,0.954-0.193,1.454-0.193 c0.741,0,1.431,0.144,2.068,0.432c0.636,0.288,1.127,0.78,1.476,1.477L158.279,90.523z"></path><path fill="#333333" d="M163.369,93.728c0.045,0.53,0.173,1.03,0.386,1.499c0.211,0.47,0.492,0.875,0.84,1.216 c0.349,0.341,0.75,0.609,1.205,0.807c0.454,0.196,0.946,0.294,1.477,0.294c0.803,0,1.495-0.184,2.079-0.556 c0.582-0.371,1.026-0.799,1.328-1.284l1.16,0.955c-0.636,0.803-1.337,1.378-2.102,1.726c-0.765,0.348-1.587,0.523-2.465,0.523 c-0.788,0-1.52-0.141-2.193-0.42c-0.674-0.28-1.253-0.671-1.738-1.17c-0.485-0.501-0.868-1.091-1.148-1.773 c-0.281-0.681-0.42-1.424-0.42-2.227s0.136-1.545,0.408-2.226c0.273-0.682,0.652-1.273,1.137-1.773 c0.485-0.499,1.052-0.889,1.704-1.17c0.651-0.28,1.356-0.42,2.113-0.42c0.803,0,1.523,0.145,2.158,0.433 c0.637,0.288,1.171,0.67,1.602,1.146c0.433,0.478,0.762,1.038,0.989,1.681c0.227,0.645,0.341,1.33,0.341,2.057v0.682H163.369z  M170.593,92.5c0-1.014-0.303-1.836-0.909-2.465c-0.606-0.629-1.455-0.943-2.545-0.943c-0.485,0-0.954,0.095-1.409,0.284 c-0.454,0.19-0.852,0.443-1.193,0.761c-0.34,0.318-0.613,0.682-0.818,1.091c-0.204,0.409-0.306,0.833-0.306,1.272H170.593z"></path><polygon fill="#333333" points="176.297,101.816 174.798,101.816 176.32,96.477 178.16,96.477 "></polygon><path fill="#333333" d="M194.407,92.114v-0.273c0-1.833-0.909-2.749-2.728-2.749c-1.241,0-2.325,0.417-3.249,1.249l-0.909-1.066 c1-1.03,2.5-1.546,4.499-1.546c0.515,0,1.011,0.076,1.488,0.228c0.477,0.152,0.89,0.382,1.238,0.692 c0.348,0.311,0.628,0.701,0.84,1.171c0.213,0.47,0.318,1.031,0.318,1.681v4.749c0,0.409,0.02,0.838,0.057,1.284 c0.038,0.447,0.08,0.815,0.125,1.102h-1.453c-0.045-0.257-0.08-0.538-0.103-0.84c-0.022-0.304-0.035-0.599-0.035-0.887h-0.045 c-0.44,0.713-0.958,1.224-1.556,1.534c-0.6,0.31-1.329,0.466-2.192,0.466c-0.471,0-0.925-0.065-1.364-0.193 c-0.44-0.129-0.829-0.326-1.17-0.591c-0.341-0.265-0.614-0.591-0.818-0.978c-0.205-0.386-0.307-0.836-0.307-1.352 c0-0.863,0.223-1.541,0.67-2.034c0.446-0.492,1.007-0.86,1.681-1.102c0.675-0.242,1.394-0.394,2.158-0.454 c0.766-0.061,1.467-0.091,2.103-0.091H194.407z M193.634,93.341c-0.379,0-0.853,0.02-1.42,0.058 c-0.568,0.037-1.113,0.128-1.637,0.271c-0.523,0.145-0.969,0.368-1.34,0.671c-0.372,0.302-0.557,0.72-0.557,1.25 c0,0.349,0.072,0.647,0.216,0.896c0.143,0.251,0.336,0.455,0.579,0.614c0.242,0.16,0.511,0.273,0.807,0.341 c0.295,0.068,0.594,0.102,0.896,0.102c0.547,0,1.02-0.09,1.42-0.271c0.402-0.183,0.74-0.428,1.013-0.738 c0.272-0.311,0.474-0.675,0.603-1.091c0.127-0.417,0.192-0.86,0.192-1.33v-0.772H193.634z"></path><path fill="#333333" d="M200.814,88.001c0.03,0.288,0.049,0.573,0.057,0.852c0.008,0.28,0.012,0.565,0.012,0.852h0.045 c0.167-0.287,0.379-0.552,0.637-0.795c0.257-0.242,0.545-0.451,0.863-0.625s0.656-0.31,1.011-0.409 c0.356-0.098,0.708-0.148,1.058-0.148c1.362,0,2.371,0.36,3.021,1.08c0.65,0.719,0.977,1.746,0.977,3.079v6.748h-1.5v-5.884 c0-1.183-0.203-2.088-0.613-2.717c-0.408-0.628-1.166-0.942-2.272-0.942c-0.075,0-0.288,0.031-0.635,0.09 c-0.349,0.062-0.716,0.228-1.103,0.501s-0.731,0.682-1.035,1.226c-0.303,0.546-0.453,1.304-0.453,2.273v5.453h-1.5v-8.293 c0-0.289-0.012-0.651-0.034-1.091c-0.022-0.439-0.049-0.856-0.079-1.25H200.814z"></path><path fill="#333333" d="M222.626,98.635h-1.5v-1.772h-0.045c-0.242,0.363-0.529,0.674-0.862,0.932 c-0.334,0.257-0.683,0.469-1.045,0.636c-0.364,0.167-0.739,0.287-1.125,0.363c-0.388,0.076-0.754,0.114-1.103,0.114 c-0.832,0-1.595-0.141-2.283-0.421c-0.689-0.28-1.284-0.67-1.784-1.17c-0.499-0.5-0.89-1.091-1.171-1.772 c-0.279-0.682-0.42-1.424-0.42-2.227c0-0.803,0.141-1.545,0.42-2.226c0.281-0.682,0.672-1.273,1.171-1.773 c0.5-0.5,1.095-0.89,1.784-1.17c0.688-0.281,1.451-0.421,2.283-0.421c0.349,0,0.715,0.038,1.103,0.114 c0.386,0.076,0.761,0.197,1.125,0.363c0.362,0.167,0.711,0.379,1.045,0.636c0.333,0.258,0.62,0.569,0.862,0.932h0.045v-8.316h1.5 V98.635z M212.925,93.318c0,0.591,0.094,1.144,0.283,1.659c0.189,0.515,0.459,0.962,0.807,1.341c0.35,0.378,0.77,0.677,1.261,0.896 c0.493,0.22,1.05,0.33,1.671,0.33c0.606,0,1.17-0.109,1.693-0.33c0.521-0.219,0.973-0.518,1.352-0.896 c0.379-0.379,0.674-0.826,0.887-1.341c0.212-0.516,0.318-1.068,0.318-1.659s-0.106-1.144-0.318-1.659 c-0.213-0.515-0.508-0.961-0.887-1.341c-0.379-0.378-0.83-0.677-1.352-0.897c-0.523-0.219-1.087-0.329-1.693-0.329 c-0.621,0-1.178,0.11-1.671,0.329c-0.491,0.221-0.911,0.52-1.261,0.897c-0.348,0.38-0.617,0.826-0.807,1.341 C213.019,92.174,212.925,92.728,212.925,93.318"></path><path fill="#333333" d="M240.374,85.206c-0.713-1.045-1.75-1.567-3.114-1.567c-0.422,0-0.84,0.056-1.248,0.17 c-0.41,0.113-0.776,0.288-1.103,0.522c-0.326,0.235-0.588,0.538-0.784,0.91c-0.197,0.371-0.295,0.806-0.295,1.306 c0,0.728,0.204,1.292,0.613,1.692c0.408,0.403,0.917,0.732,1.523,0.989c0.605,0.258,1.268,0.487,1.987,0.692 c0.72,0.204,1.382,0.478,1.988,0.818s1.112,0.792,1.522,1.352c0.408,0.562,0.613,1.326,0.613,2.295c0,0.727-0.156,1.382-0.466,1.965 c-0.312,0.584-0.72,1.072-1.228,1.466c-0.506,0.394-1.076,0.697-1.703,0.909c-0.629,0.212-1.262,0.318-1.897,0.318 c-0.985,0-1.92-0.186-2.808-0.557c-0.885-0.371-1.639-0.98-2.26-1.829l1.5-1.067c0.348,0.59,0.83,1.063,1.448,1.419 c0.62,0.356,1.353,0.534,2.198,0.534c0.407,0,0.814-0.063,1.223-0.193c0.407-0.128,0.774-0.318,1.098-0.568 c0.326-0.249,0.594-0.557,0.806-0.92c0.211-0.364,0.317-0.78,0.317-1.25c0-0.56-0.118-1.026-0.354-1.397 c-0.234-0.371-0.545-0.682-0.931-0.931c-0.386-0.251-0.826-0.459-1.318-0.626c-0.493-0.166-1-0.333-1.522-0.499 c-0.522-0.167-1.03-0.356-1.522-0.569c-0.492-0.212-0.931-0.479-1.317-0.806s-0.697-0.735-0.933-1.227 c-0.233-0.493-0.351-1.109-0.351-1.852c0-0.773,0.146-1.446,0.441-2.022c0.297-0.576,0.69-1.053,1.182-1.432 c0.492-0.378,1.05-0.659,1.67-0.841c0.621-0.181,1.258-0.273,1.908-0.273c0.91,0,1.735,0.144,2.478,0.433 c0.743,0.288,1.433,0.795,2.067,1.522L240.374,85.206z"></path><path fill="#333333" d="M244.849,81.458h1.5v8.248h0.045c0.166-0.288,0.379-0.553,0.637-0.796c0.257-0.242,0.545-0.45,0.863-0.624 s0.654-0.31,1.011-0.409s0.708-0.148,1.056-0.148c1.364,0,2.372,0.36,3.023,1.079c0.65,0.72,0.977,1.746,0.977,3.079v6.748h-1.5 v-5.884c0-1.183-0.203-2.087-0.613-2.716c-0.408-0.628-1.166-0.942-2.272-0.942c-0.076,0-0.288,0.03-0.636,0.09 c-0.348,0.061-0.715,0.227-1.102,0.5s-0.731,0.682-1.035,1.227c-0.303,0.545-0.453,1.303-0.453,2.272v5.453h-1.5V81.458z"></path><path fill="#333333" d="M264.299,92.114v-0.273c0-1.833-0.909-2.749-2.727-2.749c-1.242,0-2.326,0.417-3.249,1.249l-0.909-1.066 c1-1.03,2.5-1.546,4.499-1.546c0.516,0,1.011,0.076,1.488,0.228c0.477,0.152,0.89,0.382,1.238,0.692s0.629,0.701,0.84,1.171 c0.213,0.47,0.318,1.031,0.318,1.681v4.749c0,0.409,0.02,0.838,0.057,1.284c0.039,0.447,0.08,0.815,0.125,1.102h-1.453 c-0.045-0.257-0.079-0.538-0.103-0.84c-0.022-0.304-0.034-0.599-0.034-0.887h-0.045c-0.44,0.713-0.959,1.224-1.557,1.534 c-0.6,0.31-1.329,0.466-2.191,0.466c-0.472,0-0.926-0.065-1.365-0.193c-0.439-0.129-0.828-0.326-1.17-0.591 c-0.34-0.265-0.613-0.591-0.817-0.978c-0.205-0.386-0.308-0.836-0.308-1.352c0-0.863,0.224-1.541,0.67-2.034 c0.447-0.492,1.008-0.86,1.683-1.102c0.674-0.242,1.394-0.394,2.159-0.454c0.764-0.061,1.465-0.091,2.101-0.091H264.299z  M263.527,93.341c-0.379,0-0.853,0.02-1.42,0.058c-0.568,0.037-1.113,0.128-1.637,0.271c-0.522,0.145-0.969,0.368-1.34,0.671 c-0.372,0.302-0.557,0.72-0.557,1.25c0,0.349,0.072,0.647,0.216,0.896c0.144,0.251,0.336,0.455,0.579,0.614 c0.242,0.16,0.511,0.273,0.807,0.341c0.295,0.068,0.594,0.102,0.897,0.102c0.546,0,1.019-0.09,1.42-0.271 c0.401-0.183,0.739-0.428,1.012-0.738c0.272-0.311,0.474-0.675,0.603-1.091c0.127-0.417,0.192-0.86,0.192-1.33v-0.772H263.527z"></path><path fill="#333333" d="M269.435,91.318c0-0.469-0.012-0.946-0.034-1.431c-0.022-0.485-0.042-1.114-0.057-1.886h1.477v1.976h0.046 c0.106-0.287,0.258-0.564,0.454-0.829c0.196-0.265,0.435-0.503,0.716-0.715c0.279-0.212,0.605-0.383,0.978-0.512 c0.37-0.128,0.791-0.193,1.261-0.193c0.423,0,0.795,0.046,1.113,0.136l-0.295,1.478c-0.197-0.075-0.485-0.113-0.864-0.113 c-0.576,0-1.067,0.11-1.478,0.33c-0.408,0.219-0.75,0.499-1.021,0.84s-0.475,0.708-0.604,1.102 c-0.127,0.394-0.192,0.773-0.192,1.136v5.999h-1.499V91.318z"></path><path fill="#333333" d="M277.457,93.728c0.045,0.53,0.173,1.03,0.386,1.499c0.211,0.47,0.492,0.875,0.84,1.216 c0.349,0.341,0.75,0.609,1.205,0.807c0.454,0.196,0.946,0.294,1.478,0.294c0.803,0,1.494-0.184,2.078-0.556 c0.582-0.371,1.026-0.799,1.328-1.284l1.16,0.955c-0.636,0.803-1.337,1.378-2.102,1.726c-0.766,0.348-1.588,0.523-2.465,0.523 c-0.789,0-1.521-0.141-2.193-0.42c-0.674-0.28-1.253-0.671-1.738-1.17c-0.484-0.501-0.867-1.091-1.148-1.773 c-0.28-0.681-0.42-1.424-0.42-2.227s0.137-1.545,0.408-2.226c0.273-0.682,0.652-1.273,1.137-1.773 c0.485-0.499,1.053-0.889,1.705-1.17c0.65-0.28,1.355-0.42,2.112-0.42c0.804,0,1.523,0.145,2.158,0.433 c0.637,0.288,1.171,0.67,1.603,1.146c0.433,0.478,0.762,1.038,0.988,1.681c0.227,0.645,0.342,1.33,0.342,2.057v0.682H277.457z  M284.681,92.5c0-1.014-0.303-1.836-0.909-2.465c-0.605-0.629-1.454-0.943-2.545-0.943c-0.485,0-0.954,0.095-1.409,0.284 c-0.453,0.19-0.852,0.443-1.192,0.761c-0.341,0.318-0.613,0.682-0.818,1.091c-0.204,0.409-0.306,0.833-0.306,1.272H284.681z"></path><path fill="#333333" d="M295.679,82.548h5.339c1,0,2.004,0.167,3.011,0.5c1.008,0.333,1.917,0.837,2.727,1.511 c0.811,0.674,1.467,1.516,1.965,2.522c0.502,1.008,0.75,2.178,0.75,3.511c0,1.348-0.248,2.522-0.75,3.522 c-0.498,1-1.154,1.837-1.965,2.51c-0.81,0.674-1.719,1.179-2.727,1.512c-1.007,0.333-2.011,0.499-3.011,0.499h-5.339V82.548z  M297.315,97.136h3.181c1.228,0,2.291-0.185,3.193-0.557c0.9-0.371,1.65-0.863,2.249-1.478c0.598-0.614,1.041-1.31,1.329-2.09 c0.287-0.78,0.432-1.587,0.432-2.42s-0.145-1.64-0.432-2.42c-0.288-0.781-0.731-1.477-1.329-2.091 c-0.599-0.613-1.349-1.105-2.249-1.478c-0.902-0.371-1.966-0.556-3.193-0.556h-3.181V97.136z"></path><path fill="#333333" d="M319.014,92.114v-0.273c0-1.833-0.909-2.749-2.727-2.749c-1.242,0-2.326,0.417-3.249,1.249l-0.909-1.066 c1-1.03,2.5-1.546,4.499-1.546c0.516,0,1.011,0.076,1.488,0.228c0.477,0.152,0.89,0.382,1.238,0.692s0.629,0.701,0.84,1.171 c0.213,0.47,0.318,1.031,0.318,1.681v4.749c0,0.409,0.02,0.838,0.057,1.284c0.039,0.447,0.08,0.815,0.125,1.102h-1.453 c-0.045-0.257-0.079-0.538-0.103-0.84c-0.022-0.304-0.034-0.599-0.034-0.887h-0.045c-0.44,0.713-0.959,1.224-1.557,1.534 c-0.6,0.31-1.329,0.466-2.191,0.466c-0.472,0-0.926-0.065-1.365-0.193c-0.439-0.129-0.828-0.326-1.17-0.591 c-0.34-0.265-0.613-0.591-0.817-0.978c-0.205-0.386-0.308-0.836-0.308-1.352c0-0.863,0.224-1.541,0.67-2.034 c0.447-0.492,1.008-0.86,1.682-1.102c0.675-0.242,1.395-0.394,2.159-0.454c0.765-0.061,1.466-0.091,2.102-0.091H319.014z  M318.242,93.341c-0.379,0-0.853,0.02-1.42,0.058c-0.568,0.037-1.113,0.128-1.637,0.271c-0.522,0.145-0.969,0.368-1.34,0.671 c-0.372,0.302-0.557,0.72-0.557,1.25c0,0.349,0.072,0.647,0.216,0.896c0.144,0.251,0.336,0.455,0.579,0.614 c0.242,0.16,0.511,0.273,0.807,0.341c0.295,0.068,0.594,0.102,0.897,0.102c0.546,0,1.019-0.09,1.42-0.271 c0.401-0.183,0.739-0.428,1.012-0.738c0.272-0.311,0.474-0.675,0.603-1.091c0.127-0.417,0.192-0.86,0.192-1.33v-0.772H318.242z"></path><path fill="#333333" d="M329.49,89.365h-3.068v6.271c0,0.395,0.039,0.716,0.114,0.966c0.076,0.25,0.181,0.443,0.318,0.579 c0.136,0.137,0.299,0.232,0.489,0.285c0.188,0.052,0.396,0.078,0.625,0.078c0.256,0,0.521-0.037,0.795-0.113 c0.271-0.076,0.521-0.174,0.748-0.295l0.068,1.386c-0.56,0.257-1.234,0.386-2.021,0.386c-0.288,0-0.589-0.038-0.898-0.113 c-0.311-0.077-0.595-0.22-0.852-0.432c-0.259-0.213-0.47-0.5-0.636-0.864c-0.168-0.363-0.252-0.84-0.252-1.431v-6.703h-2.248v-1.364 h2.248v-2.999h1.5v2.999h3.068V89.365z"></path><path fill="#333333" d="M338.351,92.114v-0.273c0-1.833-0.909-2.749-2.727-2.749c-1.242,0-2.326,0.417-3.25,1.249l-0.908-1.066 c1-1.03,2.5-1.546,4.498-1.546c0.516,0,1.012,0.076,1.488,0.228c0.478,0.152,0.891,0.382,1.239,0.692s0.628,0.701,0.841,1.171 c0.213,0.47,0.317,1.031,0.317,1.681v4.749c0,0.409,0.021,0.838,0.058,1.284c0.037,0.447,0.079,0.815,0.125,1.102h-1.455 c-0.045-0.257-0.078-0.538-0.102-0.84c-0.023-0.304-0.035-0.599-0.035-0.887h-0.045c-0.439,0.713-0.958,1.224-1.557,1.534 c-0.598,0.31-1.328,0.466-2.191,0.466c-0.471,0-0.925-0.065-1.363-0.193c-0.44-0.129-0.83-0.326-1.171-0.591 c-0.341-0.265-0.614-0.591-0.817-0.978c-0.205-0.386-0.308-0.836-0.308-1.352c0-0.863,0.224-1.541,0.671-2.034 c0.445-0.492,1.006-0.86,1.68-1.102c0.676-0.242,1.395-0.394,2.16-0.454c0.765-0.061,1.465-0.091,2.102-0.091H338.351z  M337.578,93.341c-0.377,0-0.852,0.02-1.42,0.058c-0.568,0.037-1.113,0.128-1.636,0.271c-0.522,0.145-0.969,0.368-1.34,0.671 c-0.372,0.302-0.558,0.72-0.558,1.25c0,0.349,0.072,0.647,0.217,0.896c0.143,0.251,0.336,0.455,0.578,0.614 c0.242,0.16,0.512,0.273,0.808,0.341c0.295,0.068,0.594,0.102,0.897,0.102c0.545,0,1.019-0.09,1.42-0.271 c0.401-0.183,0.738-0.428,1.012-0.738c0.271-0.311,0.473-0.675,0.602-1.091c0.129-0.417,0.193-0.86,0.193-1.33v-0.772H337.578z"></path></svg>