<svg xmlns="http://www.w3.org/2000/svg" id="Layer_2" data-name="Layer 2" viewBox="0 0 295.37 87.98"><defs><style>.cls-1{fill:#fff}</style></defs><g id="Layer_1-2" data-name="Layer 1"><path d="M0 0v87.98h87.98V0zm85.63 85.63H2.36V2.36h83.27z" class="cls-1"/><path d="M62.85 9.43h15.71v69.13H62.85zM47.13 9.43H9.43v15.71h22A27.96 27.96 0 0 0 47.14 9.43ZM43.99 37.71H31.42a105.5 105.5 0 0 0-15.71 40.85h28.28zM105.48 84.84l-.84-2.47h-4.54l-.86 2.47h-1.82l3.98-11.17h2.09l4.01 11.17h-2Zm-2.65-7.71c-.2-.55-.35-1.03-.46-1.52h-.02c-.15.5-.28.98-.46 1.52l-1.34 3.82h3.63l-1.34-3.82ZM116.92 84.84l-3.96-6.72c-.45-.79-.79-1.49-1.09-2.2.07 1.09.12 4.07.12 5.84v3.08h-1.74V73.67h2.4l3.88 6.59c.41.7.83 1.51 1.16 2.23-.05-1.26-.12-4.22-.12-5.99v-2.83h1.74v11.17zM126.56 84.91c-1.14 0-2.09-.07-2.96-.08V73.69c.88-.03 2.17-.08 3.46-.08 3.53 0 5.7 1.62 5.7 5.5s-2.55 5.81-6.19 5.81Zm.35-9.8c-.55 0-1.11.02-1.51.05v8.13c.36.05.89.1 1.34.1 2.4 0 4.09-1.29 4.09-4.16 0-2.65-1.18-4.12-3.93-4.12ZM143.2 85.01c-.94 0-1.79-.1-2.5-.3l.22-1.74c.7.28 1.52.46 2.37.46 1.18 0 2.19-.48 2.19-1.71 0-2.35-4.9-1.36-4.9-4.98 0-1.9 1.46-3.24 4.06-3.24.63 0 1.39.08 2 .22l-.18 1.59c-.6-.2-1.26-.31-1.92-.31-1.41 0-2.07.63-2.07 1.57 0 2.22 4.97 1.41 4.97 4.93 0 2.04-1.67 3.51-4.22 3.51ZM154.12 75.19v9.65h-1.81v-9.65h-3.08v-1.52h7.97v1.52zM165.76 84.84l-.84-2.47h-4.54l-.86 2.47h-1.82l3.98-11.17h2.09l4.01 11.17h-2Zm-2.65-7.71c-.2-.55-.35-1.03-.46-1.52h-.02c-.15.5-.28.98-.46 1.52l-1.34 3.82h3.63l-1.34-3.82ZM173.17 75.19v9.65h-1.81v-9.65h-3.08v-1.52h7.97v1.52zM179.18 84.84V73.67h1.81v11.17zM187.06 85.01c-.94 0-1.79-.1-2.5-.3l.22-1.74c.7.28 1.52.46 2.37.46 1.18 0 2.19-.48 2.19-1.71 0-2.35-4.9-1.36-4.9-4.98 0-1.9 1.46-3.24 4.06-3.24.63 0 1.39.08 2 .22l-.18 1.59c-.6-.2-1.26-.31-1.92-.31-1.41 0-2.07.63-2.07 1.57 0 2.22 4.97 1.41 4.97 4.93 0 2.04-1.67 3.51-4.22 3.51ZM197.97 75.19v9.65h-1.81v-9.65h-3.08v-1.52h7.97v1.52zM203.99 84.84V73.67h1.81v11.17zM214.29 84.97c-3.73 0-5.12-2.42-5.12-5.41 0-3.46 1.77-5.99 5.53-5.99.83 0 1.72.12 2.48.35l-.27 1.66c-.75-.28-1.56-.43-2.35-.43-2.35 0-3.41 1.79-3.41 4.12 0 2.6 1.11 4.09 3.54 4.09.76 0 1.67-.22 2.3-.51l.3 1.57c-.84.33-1.92.56-3.01.56ZM222.78 85.01c-.94 0-1.79-.1-2.5-.3l.22-1.74c.7.28 1.52.46 2.37.46 1.18 0 2.19-.48 2.19-1.71 0-2.35-4.9-1.36-4.9-4.98 0-1.9 1.46-3.24 4.06-3.24.63 0 1.39.08 2 .22l-.18 1.59c-.6-.2-1.26-.31-1.92-.31-1.41 0-2.07.63-2.07 1.57 0 2.22 4.97 1.41 4.97 4.93 0 2.04-1.67 3.51-4.22 3.51ZM239.89 84.97c-3.73 0-5.12-2.42-5.12-5.41 0-3.46 1.77-5.99 5.53-5.99.83 0 1.72.12 2.48.35l-.27 1.66c-.75-.28-1.56-.43-2.35-.43-2.35 0-3.41 1.79-3.41 4.12 0 2.6 1.11 4.09 3.54 4.09.76 0 1.67-.22 2.3-.51l.3 1.57c-.84.33-1.92.56-3.01.56ZM246.29 84.84V73.67h5.9v1.49h-4.09v3.19h3.89v1.47h-3.89v3.48h4.09v1.54zM262.62 84.84l-3.96-6.72c-.45-.79-.79-1.49-1.09-2.2.07 1.09.12 4.07.12 5.84v3.08h-1.74V73.67h2.4l3.88 6.59c.41.7.83 1.51 1.16 2.23-.05-1.26-.12-4.22-.12-5.99v-2.83h1.74v11.17zM272.83 75.19v9.65h-1.81v-9.65h-3.08v-1.52h7.97v1.52zM284.23 84.84l-3.38-4.83h-.2v4.83h-1.81V73.67c.81-.05 1.74-.07 2.98-.07 2.34 0 3.93.81 3.93 3.01 0 1.79-1.37 2.95-3.05 3.15.31.4.66.81.93 1.19l2.85 3.89zm-2.63-9.77c-.36 0-.68.02-.94.05v3.54c.17.02.48.03.88.03 1.46 0 2.34-.74 2.34-1.87 0-1.22-.78-1.75-2.27-1.75ZM289.48 84.84V73.67h5.9v1.49h-4.09v3.19h3.89v1.47h-3.89v3.48h4.09v1.54zM99.21 56.34v3.28h3.81v1.47h-3.81v4.9h-1.8V54.82h5.83v1.52h-4.02ZM105.19 65.99V54.82h5.89v1.49h-4.09v3.19h3.89v1.47h-3.89v3.48h4.09v1.54zM116.48 66.05c-1.14 0-2.09-.07-2.96-.08V54.83c.88-.03 2.17-.08 3.46-.08 3.52 0 5.69 1.62 5.69 5.5s-2.55 5.81-6.19 5.81Zm.34-9.8c-.55 0-1.11.02-1.51.05v8.13c.36.05.89.1 1.34.1 2.4 0 4.09-1.29 4.09-4.16 0-2.65-1.17-4.12-3.92-4.12M124.7 65.99V54.82h5.89v1.49h-4.09v3.19h3.89v1.47h-3.89v3.48h4.09v1.54zM138.4 65.99l-3.38-4.83h-.2v4.83h-1.8V54.82c.81-.05 1.74-.07 2.98-.07 2.33 0 3.92.81 3.92 3.01 0 1.79-1.37 2.95-3.05 3.15.31.4.66.81.93 1.19l2.85 3.89zm-2.63-9.77c-.36 0-.68.02-.94.05v3.54c.17.02.48.03.88.03 1.46 0 2.33-.74 2.33-1.87 0-1.23-.78-1.75-2.27-1.75M148.93 65.99l-.84-2.47h-4.53l-.86 2.47h-1.82l3.97-11.17h2.09l4 11.17h-2Zm-2.65-7.72c-.2-.55-.35-1.03-.46-1.52h-.02c-.15.5-.28.98-.46 1.52L144 62.09h3.62zM152.37 65.99V54.82h1.8v9.62h3.84V66h-5.64ZM167.68 66.12c-3.72 0-5.11-2.42-5.11-5.41 0-3.46 1.77-5.99 5.53-5.99.83 0 1.72.12 2.48.35l-.26 1.66c-.74-.28-1.56-.43-2.35-.43-2.35 0-3.41 1.79-3.41 4.12 0 2.6 1.11 4.09 3.54 4.09.76 0 1.67-.22 2.3-.51l.3 1.57c-.84.33-1.92.56-3.01.56ZM176.68 66.15c-3.38 0-5.01-2.2-5.01-5.6 0-3.72 2.43-5.91 5.36-5.91 3.38 0 5.03 2.2 5.03 5.6 0 3.72-2.43 5.91-5.38 5.91m.18-9.9c-1.82 0-3.28 1.46-3.28 4.06s1.06 4.22 3.28 4.22c1.82 0 3.28-1.44 3.28-4.06s-1.08-4.22-3.28-4.22M194.7 65.99l-.89-5.99c-.15-1.11-.26-2.1-.35-2.81h-.03c-.13.61-.33 1.44-.6 2.3L190.69 66h-1.82l-2.02-6.08c-.3-.93-.56-1.9-.73-2.73h-.03c-.07.94-.17 1.94-.3 2.96l-.71 5.84h-1.82l1.65-11.17h2.17l2.15 6.49c.18.58.45 1.51.63 2.27h.03c.2-.81.4-1.56.61-2.2l2.17-6.56h2.18l1.7 11.17h-1.87ZM201.31 61.97c-.5 0-.93-.05-.93-.05v4.07h-1.8V54.82s1.51-.07 2.95-.07c2.65 0 4.1 1.26 4.1 3.34 0 2.23-1.57 3.87-4.32 3.87Zm.05-5.73c-.5 0-.98.02-.98.02v4.12s.48.08 1.06.08c1.54 0 2.32-.83 2.32-2.15s-.74-2.07-2.4-2.07M207.43 65.99V54.82h5.89v1.49h-4.09v3.19h3.89v1.47h-3.89v3.48h4.09v1.54zM219.58 56.34v9.65h-1.8v-9.65h-3.08v-1.52h7.96v1.52zM224.26 65.99V54.82h1.8v11.17zM232.57 56.34v9.65h-1.8v-9.65h-3.08v-1.52h7.96v1.52zM237.25 65.99V54.82h1.8v11.17zM246.55 65.99h-2.05l-3.97-11.17h1.99l2.35 6.9c.23.63.5 1.49.7 2.22h.03c.18-.74.45-1.57.73-2.35l2.4-6.77h1.85l-4.02 11.17ZM252.05 65.99V54.82h5.89v1.49h-4.09v3.19h3.89v1.47h-3.89v3.48h4.09v1.54zM267.04 65.99l-3.96-6.72c-.45-.79-.79-1.49-1.09-2.2.07 1.09.12 4.07.12 5.84v3.08h-1.74V54.82h2.4l3.87 6.59c.41.7.83 1.51 1.16 2.23-.05-1.26-.12-4.22-.12-5.99v-2.83h1.74v11.17zM272.39 65.99V54.82h5.89v1.49h-4.09v3.19h3.89v1.47h-3.89v3.48h4.09v1.54zM282.78 66.15c-.94 0-1.79-.1-2.5-.3l.22-1.74c.69.28 1.52.46 2.37.46 1.18 0 2.18-.48 2.18-1.71 0-2.35-4.9-1.36-4.9-4.98 0-1.9 1.46-3.24 4.05-3.24.63 0 1.39.08 2 .22l-.18 1.59c-.6-.2-1.26-.31-1.92-.31-1.41 0-2.07.63-2.07 1.57 0 2.22 4.96 1.41 4.96 4.93 0 2.04-1.67 3.51-4.22 3.51ZM291.15 66.15c-.94 0-1.79-.1-2.5-.3l.22-1.74c.69.28 1.52.46 2.37.46 1.18 0 2.18-.48 2.18-1.71 0-2.35-4.9-1.36-4.9-4.98 0-1.9 1.46-3.24 4.05-3.24.63 0 1.39.08 2 .22l-.18 1.59c-.6-.2-1.26-.31-1.92-.31-1.41 0-2.07.63-2.07 1.57 0 2.22 4.96 1.41 4.96 4.93 0 2.04-1.67 3.51-4.22 3.51ZM293.39 3.14h1.98v12.72h-1.98zM253.15 14.82c0-4.1-1.61-6.08-4.24-7.22l4.69-2.85V2.78l-6.98 4.37v1.46c3.03.79 4.51 2.47 4.58 5.68h-46.69V7.16h-1.97v7.86c0 3.69-2.66 3.64-4.92 3.64v1.77c2.14 0 6.38.05 6.84-4.57h48.68v-1.05ZM288.17 14.29h-6.8v-3.03c0-2.56-1.28-4.1-3.97-4.1-3.05 0-4.58 2.08-4.58 4.4 0 2.15-.79 2.72-1.95 2.72h-11.65V7.15h-1.97v7.86c0 3.69-2.66 3.64-4.92 3.64v1.77c2.14 0 6.38.05 6.84-4.57h11.97c1.5 0 2.29-.65 2.58-1.55.61.92 1.48 1.55 4.11 1.55h12.3V3.14h-1.97v11.15Zm-8.74 0h-1.61c-2.11 0-3.03-.92-3.03-2.81 0-1.62.92-2.74 2.45-2.74 1.37 0 2.18.81 2.18 2.8v2.76ZM202.55 3.14h1.97v1.97h-1.97zM115.04 7l-.74 1.62c2.67 1.19 3.37 2.85 3.41 5.67h-6.55v1.57h8.5v-1.03c0-4.17-1.06-6.26-4.62-7.83M186.02 14.29h-5.57v1.57h7.56V3.14h-1.99zM191.26 3.14h1.98v12.72h-1.98zM174.65 14.29h-9.33v-.05c0-1.26 0-3.73-1.73-5.46-1.09-1.08-2.66-1.65-4.74-1.62h-2.28v1.68h2.28c4.65 0 4.65 3.52 4.65 5.28v.16h-39.03V3.14h-1.98v12.72h54.12V7.17h-1.97v7.13Z" class="cls-1"/><path d="M112.87 12.31v-.58c0-2.74-1.06-4.57-4.44-4.57-1.52 0-2.94.27-2.94.27v6.86h-1.41c-3.59 0-4.69-1.3-4.69-3.95 0-.99.25-2.2.67-3.05l-2.13.34c-.29.74-.52 1.89-.52 2.94 0 3.36 1.73 5.29 6.44 5.29h3.55V8.84s.6-.11 1.1-.11c1.79 0 2.65.87 2.65 3.05v.52h1.71ZM174.65 3.14h1.97v1.97h-1.97zM171.93 3.14h1.97v1.97h-1.97zM103.71 18.46h1.97v1.97h-1.97zM100.98 18.46h1.97v1.97h-1.97zM184.45 12.8l-2.8-9.77-1.96.27 2.72 9.5zM281.73 26.74h1.97v1.97h-1.97zM279 26.74h1.97v1.97H279zM215.08 42.06h1.97v1.97h-1.97zM212.36 42.06h1.97v1.97h-1.97zM274.14 26.74h1.97v1.97h-1.97zM253.31 26.74h1.97v1.97h-1.97zM203.38 26.74h1.97v1.97h-1.97zM200.65 26.74h1.97v1.97h-1.97z" class="cls-1"/><path d="M293.41 26.74v11.15h-4.26V26.74h-1.97v11.15h-4.85v-7.13h-1.96v7.13h-4.26v-7.13h-1.97v7.13h-10.65V26.74h-1.98v12.72h33.86V26.74zM254.62 30.76c-3.05 0-4.6 2.08-4.6 4.4 0 1.41.41 2.31 1.19 2.83 0 0-.4-.11-1.03-.11h-6.36c.13-.33.21-.69.21-1.09v-6.03h-1.75v6.03c0 .66-.44 1.09-1.09 1.09h-2.38c.13-.33.2-.7.2-1.09v-4.94h-1.75v4.94c0 .66-.44 1.09-1.09 1.09h-2.38c.13-.33.2-.7.2-1.09v-3.85h-1.75v3.85c0 .66-.44 1.09-1.09 1.09H215.7v-7.13h-1.97v7.13h-8.17v-7.13c-2.13.1-3.91.96-5.36 2.54s-2.29 3.64-2.56 6.16h1.88q.21-1.23.51-2.13c.16-.53.41-1.08.76-1.66.72-1.25 1.51-2.07 2.44-2.5.1-.02.27-.08.47-.16v6.45h27.45c1.07 0 1.92-.41 2.4-1.14v1.14h2.62c1.07 0 1.92-.41 2.4-1.14v1.14h2.62c.61 0 1.13-.14 1.57-.39v.39h15.81v-4.6c0-2.56-1.26-4.1-3.95-4.1Zm2.02 7.13h-1.61c-2.13 0-3.03-.92-3.03-2.81 0-1.62.92-2.74 2.45-2.74 1.37 0 2.18.81 2.18 2.8v2.76ZM178.23 26.74h1.98v12.72h-1.98zM100.53 36.5c0-.72.54-1.24 1.59-1.24.61 0 1.24.11 1.48.16l.23-1.59c-.27-.04-.92-.13-1.57-.13-2.69 0-3.72 1.46-3.72 2.89 0 .67.29 1.19.79 1.43-.45-.07-1.17-.13-1.93-.13v1.57h7v-1.57h-1.62c-1.66 0-2.26-.58-2.26-1.39ZM170.05 42.31c0-.32.29-.56.83-.56.4 0 .72.05.9.11l.2-1.12c-.2-.05-.58-.11-.99-.11-1.55 0-2.31.78-2.31 1.66 0 .38.18.6.36.7-.27-.05-.65-.09-1.03-.09v1.12h4.33V42.9h-1.1c-.85 0-1.19-.22-1.19-.6ZM172.99 37.89h-5.57v1.57h7.56V26.74h-1.99zM157.68 30.76h-2.28v1.68h2.28c4.65 0 4.65 3.52 4.65 5.28v.16h-13.57v-.36c0-4.41-1.61-6.77-4.77-6.77-2.07 0-4.2 1.53-5.62 3.77v-2.09h-1.83v3.01c0 1.47-.39 2.13-.82 2.43h-26.9V26.72h-1.98v12.72h57.32v-1.62c0-1.26 0-3.73-1.73-5.46-1.09-1.08-2.66-1.65-4.74-1.62Zm-10.78 7.13h-8.67c1.03-2.88 3.57-5.44 5.67-5.44 1.87 0 3.02 1.93 3.02 4.78 0 .21 0 .44-.02.66M187.54 30.76c-3.18 0-4.64 2.13-4.64 4.49 0 2.58 1.3 4.2 4.78 4.2h1.64v.36c0 1.91-1.39 2.63-3.3 2.63-1.39 0-2.85-.34-2.85-.34l-.14 1.64s1.43.27 2.8.27c3.93 0 5.43-2.08 5.43-4.35v-8.28s-1.64-.63-3.72-.63Zm1.78 7.13h-1.41c-2.13 0-3.01-.96-3.01-2.81 0-1.62.92-2.74 2.44-2.74 1.19 0 1.98.38 1.98.38v5.18Z" class="cls-1"/><path d="m171.42 36.39-2.79-9.76-1.97.27 2.72 9.49z" class="cls-1"/></g></svg>