<?xml version="1.0" encoding="UTF-8"?>
<svg version="1.1" xmlns="http://www.w3.org/2000/svg" width="371" height="103">
<path d="M0 0 C5.74281212 2.87140606 8.40382409 9.37941299 11 15 C11 15.66 11 16.32 11 17 C16.23600574 16.63062174 16.23600574 16.63062174 21.0625 14.875 C24.33871234 13.39542024 26.61084767 14.048659 30 15 C34.9423045 19.9423045 37.20183652 23.8640627 37.4140625 30.79296875 C37.45281494 31.96585449 37.49156738 33.13874023 37.53149414 34.34716797 C37.56235107 35.61447754 37.59320801 36.88178711 37.625 38.1875 C37.68192017 40.14647217 37.68192017 40.14647217 37.73999023 42.14501953 C38.15629139 57.42652714 38.09500442 72.7145189 38 88 C36.515 88.495 36.515 88.495 35 89 C33.515 88.01 33.515 88.01 32 87 C31.896875 88.051875 31.79375 89.10375 31.6875 90.1875 C30.89336453 92.93643047 30.23509004 93.83973066 27.83984375 95.47265625 C21.16377053 98.61377271 14.22137371 100.57138135 7 102 C6.21367188 102.16757813 5.42734375 102.33515625 4.6171875 102.5078125 C-8.46245701 104.59168807 -24.15727269 100.22848487 -35 93 C-35.6875 89.875 -35.6875 89.875 -36 87 C-38.475 87.99 -38.475 87.99 -41 89 C-41.82141219 74.65462284 -42.24131645 60.36859739 -42 46 C-41.98743164 45.08138184 -41.97486328 44.16276367 -41.96191406 43.21630859 C-41.91525109 40.51795086 -41.8382538 37.82228828 -41.75 35.125 C-41.73598145 34.32312256 -41.72196289 33.52124512 -41.70751953 32.69506836 C-41.41595135 25.82580907 -39.30862539 20.55820651 -34.6875 15.4375 C-31.02860689 13.48041764 -28.96211826 13.99146081 -25 15 C-24.36449219 15.34289063 -23.72898437 15.68578125 -23.07421875 16.0390625 C-20.68309755 17.14681357 -18.99800323 17.26754517 -16.375 17.25 C-15.21097656 17.25773437 -15.21097656 17.25773437 -14.0234375 17.265625 C-11.77311589 17.17915354 -11.77311589 17.17915354 -10 15 C-10.3185177 12.89179203 -10.3185177 12.89179203 -11 11 C-12.32 11 -13.64 11 -15 11 C-15.8125 9.375 -15.8125 9.375 -16 7 C-11.55196342 0.69861485 -7.65744645 -0.99486509 0 0 Z M-6 2 C-5.505 2.99 -5.505 2.99 -5 4 C-6 6 -6 6 -9 8 C-8.34 8 -7.68 8 -7 8 C-6.71972752 11.64354222 -6.55687092 14.177046 -8.3125 17.4375 C-12.66154752 19.966016 -17.09615838 19.63344253 -22 19 C-24.02156704 18.04435012 -26.02966574 17.05725253 -28 16 C-32.59834265 17.7622391 -35.90581181 20.53102978 -38 25 C-38.74589736 30.2964177 -38.34464899 35.6834702 -38 41 C-37.67 41 -37.34 41 -37 41 C-36.67 38.36 -36.34 35.72 -36 33 C-35.67 33 -35.34 33 -35 33 C-35 35.31 -35 37.62 -35 40 C-34.01 39.505 -34.01 39.505 -33 39 C-32.59270772 36.67843403 -32.25561323 34.3431213 -32 32 C-31.67 33.98 -31.34 35.96 -31 38 C-28.64046906 35.64046906 -28.50858587 34.22104383 -28 31 C-27.34 32.32 -26.68 33.64 -26 35 C-25.34 33.68 -24.68 32.36 -24 31 C-23.34 31 -22.68 31 -22 31 C-21.67 37.93 -21.34 44.86 -21 52 C-20.67 52 -20.34 52 -20 52 C-19.67 45.07 -19.34 38.14 -19 31 C-18.67 33.31 -18.34 35.62 -18 38 C-17.67 38 -17.34 38 -17 38 C-16.92523437 37.39671875 -16.85046875 36.7934375 -16.7734375 36.171875 C-16.05085292 31.77969423 -15.67351415 29.59697845 -12.25 26.5625 C-9.20071494 25.09649757 -6.25145865 23.92898818 -3 23 C-3 22.34 -3 21.68 -3 21 C-2.34 21 -1.68 21 -1 21 C-1 21.66 -1 22.32 -1 23 C0.41478135 23.64995297 1.83191487 24.29478722 3.25 24.9375 C4.43335937 25.47697266 4.43335937 25.47697266 5.640625 26.02734375 C7.75823698 26.90033279 9.76669362 27.51338508 12 28 C12.144375 29.03125 12.28875 30.0625 12.4375 31.125 C12.91660457 34.42549813 13.43875083 37.71268341 14 41 C14.33 41 14.66 41 15 41 C15 37.37 15 33.74 15 30 C15.495 32.475 15.495 32.475 16 35 C16.33 35 16.66 35 17 35 C17.33 33.35 17.66 31.7 18 30 C18.66 30.99 19.32 31.98 20 33 C20.495 32.505 20.495 32.505 21 32 C21.66 32.99 22.32 33.98 23 35 C23.33 33.35 23.66 31.7 24 30 C24.66 32.31 25.32 34.62 26 37 C26.33 37 26.66 37 27 37 C27.33 35.02 27.66 33.04 28 31 C28.99 35.455 28.99 35.455 30 40 C30.33 40 30.66 40 31 40 C31.33 37.69 31.66 35.38 32 33 C32.1953125 35.05078125 32.390625 37.1015625 32.5859375 39.15234375 C32.79089844 40.06693359 32.79089844 40.06693359 33 41 C33.66 41.33 34.32 41.66 35 42 C35.10883596 39.62374823 35.18766696 37.25256024 35.25 34.875 C35.28351563 34.20984375 35.31703125 33.5446875 35.3515625 32.859375 C35.48293487 26.15938392 32.71672536 22.79475833 28.25 18.125 C27.5075 17.42375 26.765 16.7225 26 16 C25.01 16.495 24.02 16.99 23 17.5 C18.7879306 19.2978345 15.5560629 19.45560629 11 19 C7.52448534 16.27736761 5.73502739 12.25152842 3.59765625 8.47265625 C1.93220068 5.89506853 0.37733684 3.94427358 -2 2 C-3.32 2 -4.64 2 -6 2 Z M-11 5 C-11.33 5.66 -11.66 6.32 -12 7 C-11.01 7 -10.02 7 -9 7 C-9 6.34 -9 5.68 -9 5 C-9.66 5 -10.32 5 -11 5 Z M-5 28 C-5.33 29.65 -5.66 31.3 -6 33 C-1.71 33 2.58 33 7 33 C4.93973281 30.35418376 4.93973281 30.35418376 2 28 C-1.71000718 27.58168596 -1.71000718 27.58168596 -5 28 Z M-10 30.4375 C-12.82411061 34.05589172 -13.50405017 37.43992115 -13 42 C-11.60141295 44.5246553 -10.12479868 45.97885004 -8 48 C-6.73417781 44.13276369 -6.8881235 40.26848738 -6.9375 36.25 C-6.94201172 35.55261719 -6.94652344 34.85523438 -6.95117188 34.13671875 C-6.9628998 32.42444197 -6.98083347 30.71220967 -7 29 C-8.27516537 28.90272733 -8.27516537 28.90272733 -10 30.4375 Z M10 33 C11 35 11 35 11 35 Z M-15 34 C-14 36 -14 36 -14 36 Z M-6 35 C-6.07148199 36.35243917 -6.08399454 37.70834367 -6.0625 39.0625 C-6.041875 40.361875 -6.02125 41.66125 -6 43 C-4.06257659 43.02703381 -2.12504521 43.04641125 -0.1875 43.0625 C1.43091797 43.07990234 1.43091797 43.07990234 3.08203125 43.09765625 C6.06512169 43.13624766 6.06512169 43.13624766 9 42 C9 40.02 9 38.04 9 36 C1.20028249 33.16882088 1.20028249 33.16882088 -6 35 Z M-24 37 C-24 39.31 -24 41.62 -24 44 C-23.67 44 -23.34 44 -23 44 C-23 41.69 -23 39.38 -23 37 C-23.33 37 -23.66 37 -24 37 Z M11 37 C12 40 12 40 12 40 Z M19 37 C19 38.98 19 40.96 19 43 C19.33 43 19.66 43 20 43 C20 41.02 20 39.04 20 37 C19.67 37 19.34 37 19 37 Z M-27 39 C-27 40.98 -27 42.96 -27 45 C-26.67 45 -26.34 45 -26 45 C-26 43.02 -26 41.04 -26 39 C-26.33 39 -26.66 39 -27 39 Z M22 39 C22 40.65 22 42.3 22 44 C22.33 44 22.66 44 23 44 C23 42.35 23 40.7 23 39 C22.67 39 22.34 39 22 39 Z M-30 41 C-31.35618499 42.12534105 -31.35618499 42.12534105 -31.0625 45.0625 C-31.041875 46.031875 -31.02125 47.00125 -31 48 C-28.71271266 46.16116119 -28.71271266 46.16116119 -28.875 43.375 C-28.936875 42.199375 -28.936875 42.199375 -29 41 C-29.33 41 -29.66 41 -30 41 Z M26 41 C26 43.31 26 45.62 26 48 C26.33 48 26.66 48 27 48 C27 45.69 27 43.38 27 41 C26.67 41 26.34 41 26 41 Z M-34 43 C-35.41577477 44.18424326 -35.41577477 44.18424326 -35.0625 47.5625 C-35.041875 48.696875 -35.02125 49.83125 -35 51 C-32.65026182 49.10244856 -32.65026182 49.10244856 -32.875 45.875 C-32.936875 44.451875 -32.936875 44.451875 -33 43 C-33.33 43 -33.66 43 -34 43 Z M29 43 C29.33 45.31 29.66 47.62 30 50 C30.33 50 30.66 50 31 50 C31 48.02 31 46.04 31 44 C30.34 43.67 29.68 43.34 29 43 Z M-18 44 C-17.98839844 44.99 -17.97679688 45.98 -17.96484375 47 C-17.9102781 53.73800533 -17.91101976 60.32999603 -19 67 C-17.68 67 -16.36 67 -15 67 C-13.33700035 64.58944746 -13.33700035 64.58944746 -12 62 C-8.73865998 60.36932999 -5.20569513 60.64874598 -1.625 60.5625 C-0.85671875 60.51673828 -0.0884375 60.47097656 0.703125 60.42382812 C2.95401381 60.37904401 4.82401561 60.41276681 7 61 C9.3515625 63.96484375 9.3515625 63.96484375 11 67 C11.99 67.33 12.98 67.66 14 68 C14.75077386 65.16374319 15.02801779 63.16437101 14.53125 60.25 C13.96943262 56.81299956 13.90199417 53.60457177 13.9375 50.125 C13.94652344 48.97257812 13.95554688 47.82015625 13.96484375 46.6328125 C13.97644531 45.76398437 13.98804688 44.89515625 14 44 C12.37015159 45.52651509 11.05408081 46.91138337 9.88671875 48.82421875 C8.42917 51.08887919 7.22693601 52.4570224 5 54 C0.15999056 55.02771256 -4.15999056 55.02771256 -9 54 C-11.80402417 52.05717521 -13.24613031 49.87388471 -15 47 C-15.97422126 45.97486931 -16.9678149 44.96674397 -18 44 Z M-14 44 C-13 46 -13 46 -13 46 Z M-38 45 C-38 47.31 -38 49.62 -38 52 C-37.67 52 -37.34 52 -37 52 C-37 49.69 -37 47.38 -37 45 C-37.33 45 -37.66 45 -38 45 Z M-1.1875 44.5 C-2.53908203 44.63921875 -2.53908203 44.63921875 -3.91796875 44.78125 C-4.60503906 44.8534375 -5.29210938 44.925625 -6 45 C-5.34 46.65 -4.68 48.3 -4 50 C2.10829931 49.41946806 2.10829931 49.41946806 7 46 C7 45.34 7 44.68 7 44 C4.22003893 44 1.57507433 44.21297929 -1.1875 44.5 Z M33 45 C32.83318891 47.91652174 32.83318891 47.91652174 33 51 C33.66 51.66 34.32 52.32 35 53 C35 50.69 35 48.38 35 46 C34.34 45.67 33.68 45.34 33 45 Z M16 46 C16 47.65 16 49.3 16 51 C16.33 51 16.66 51 17 51 C17 49.35 17 47.7 17 46 C16.67 46 16.34 46 16 46 Z M19 47 C20 50 20 50 20 50 Z M-24 48 C-23 50 -23 50 -23 50 Z M22 49 C22 50.65 22 52.3 22 54 C22.33 54 22.66 54 23 54 C23 52.35 23 50.7 23 49 C22.67 49 22.34 49 22 49 Z M-27 50 C-26 54 -26 54 -26 54 Z M-30 51 C-31.41577477 52.18424326 -31.41577477 52.18424326 -31.0625 55.5625 C-31.041875 56.696875 -31.02125 57.83125 -31 59 C-28.65026182 57.10244856 -28.65026182 57.10244856 -28.875 53.875 C-28.936875 52.451875 -28.936875 52.451875 -29 51 C-29.33 51 -29.66 51 -30 51 Z M-6 51 C-6 51.33 -6 51.66 -6 52 C-3.36 52 -0.72 52 2 52 C2 51.67 2 51.34 2 51 C-0.64 51 -3.28 51 -6 51 Z M26 52 C26 53.98 26 55.96 26 58 C26.33 58 26.66 58 27 58 C27 56.02 27 54.04 27 52 C26.67 52 26.34 52 26 52 Z M-34 53 C-35.20561184 53.98267859 -35.20561184 53.98267859 -35.09765625 55.84765625 C-35.08605469 56.57855469 -35.07445312 57.30945312 -35.0625 58.0625 C-35.041875 59.361875 -35.02125 60.66125 -35 62 C-34.34 61.67 -33.68 61.34 -33 61 C-33 58.36 -33 55.72 -33 53 C-33.33 53 -33.66 53 -34 53 Z M29 53 C28.83322718 56.41656024 28.83322718 56.41656024 29 60 C29.66 60.66 30.32 61.32 31 62 C31 59.36 31 56.72 31 54 C30.34 53.67 29.68 53.34 29 53 Z M-24 54 C-24 55.98 -24 57.96 -24 60 C-23.67 60 -23.34 60 -23 60 C-23 58.02 -23 56.04 -23 54 C-23.33 54 -23.66 54 -24 54 Z M19 54 C19 55.98 19 57.96 19 60 C19.33 60 19.66 60 20 60 C20 58.02 20 56.04 20 54 C19.67 54 19.34 54 19 54 Z M-38 56 C-38 58.64 -38 61.28 -38 64 C-37.67 64 -37.34 64 -37 64 C-37 61.36 -37 58.72 -37 56 C-37.33 56 -37.66 56 -38 56 Z M-21 56 C-20 60 -20 60 -20 60 Z M16 56 C17 58 17 58 17 58 Z M33 56 C32.83322718 59.41656024 32.83322718 59.41656024 33 63 C33.66 63.66 34.32 64.32 35 65 C35 62.03 35 59.06 35 56 C34.34 56 33.68 56 33 56 Z M-27 59 C-27 60.98 -27 62.96 -27 65 C-26.67 65 -26.34 65 -26 65 C-26 63.02 -26 61.04 -26 59 C-26.33 59 -26.66 59 -27 59 Z M22 59 C22 60.65 22 62.3 22 64 C22.33 64 22.66 64 23 64 C23 62.35 23 60.7 23 59 C22.67 59 22.34 59 22 59 Z M17 61 C17.11455681 62.91731918 17.24206258 64.8338675 17.375 66.75 C17.44460937 67.81734375 17.51421875 68.8846875 17.5859375 69.984375 C17.97518728 72.81928849 18.44564882 74.62042964 20 77 C21.85744207 77.61067144 21.85744207 77.61067144 24 78 C25.67016516 78.99414593 27.33720673 79.9935725 29 81 C29.66 81 30.32 81 31 81 C31 80.34 31 79.68 31 79 C30.278125 78.278125 29.55625 77.55625 28.8125 76.8125 C24.10257366 72.10257366 20.80386546 67.05044652 18 61 C17.67 61 17.34 61 17 61 Z M-31 62 C-31 64.97 -31 67.94 -31 71 C-28.58878141 69.04366025 -28.58878141 69.04366025 -28.875 65.375 C-28.91625 64.26125 -28.9575 63.1475 -29 62 C-29.66 62 -30.32 62 -31 62 Z M-22 62 C-24.12074238 63.84199998 -24.12074238 63.84199998 -24.8359375 66.26171875 C-26.27307123 69.64235882 -28.26050743 72.00888738 -30.625 74.8125 C-31.85089844 76.27623047 -31.85089844 76.27623047 -33.1015625 77.76953125 C-33.72804688 78.50558594 -34.35453125 79.24164063 -35 80 C-34.67 80.66 -34.34 81.32 -34 82 C-33.54109375 81.65066406 -33.0821875 81.30132812 -32.609375 80.94140625 C-31.68898438 80.25884766 -31.68898438 80.25884766 -30.75 79.5625 C-29.84507813 78.88380859 -29.84507813 78.88380859 -28.921875 78.19140625 C-26.93707244 76.96099003 -25.28012345 76.43887332 -23 76 C-22.63495397 74.41913952 -22.28339494 72.83516093 -21.9375 71.25 C-21.74027344 70.36828125 -21.54304688 69.4865625 -21.33984375 68.578125 C-21.00174128 66.01320972 -21.18841365 64.42908361 -22 62 Z M26 62 C26 64.97 26 67.94 26 71 C26.33 71 26.66 71 27 71 C27 68.03 27 65.06 27 62 C26.67 62 26.34 62 26 62 Z M-5 63 C-6.22899346 69.06815522 -7.27560214 74.79895188 -7 81 C-4.87043788 80.21778394 -4.87043788 80.21778394 -4.37890625 78.359375 C-3.88714598 75.29728012 -3.9064997 72.35003047 -3.9375 69.25 C-3.95103516 67.49429688 -3.95103516 67.49429688 -3.96484375 65.703125 C-3.97644531 64.81109375 -3.98804688 63.9190625 -4 63 C-4.33 63 -4.66 63 -5 63 Z M0 63 C0.33 68.61 0.66 74.22 1 80 C1.66 80.33 2.32 80.66 3 81 C3.20190089 74.64012196 2.6277833 69.14778871 1 63 C0.67 63 0.34 63 0 63 Z M3 63 C4 66 4 66 4 66 Z M-8 65 C-7 67 -7 67 -7 67 Z M-2 65 C-2.495 72.425 -2.495 72.425 -3 80 C-2.01 80.495 -2.01 80.495 -1 81 C-1 75.72 -1 70.44 -1 65 C-1.33 65 -1.66 65 -2 65 Z M29 65 C29 67.97 29 70.94 29 74 C29.99 74.495 29.99 74.495 31 75 C31 72.03 31 69.06 31 66 C30.34 65.67 29.68 65.34 29 65 Z M-35 66 C-35 69.3 -35 72.6 -35 76 C-32.81668311 74.23863645 -32.81668311 74.23863645 -32.8046875 72.0546875 C-32.82789063 71.33539063 -32.85109375 70.61609375 -32.875 69.875 C-32.936875 67.956875 -32.936875 67.956875 -33 66 C-33.66 66 -34.32 66 -35 66 Z M6 66 C7 69 7 69 7 69 Z M-11 67 C-10 70 -10 70 -10 70 Z M-38 68 C-38 72.95 -38 77.9 -38 83 C-37.67 83 -37.34 83 -37 83 C-37 78.05 -37 73.1 -37 68 C-37.33 68 -37.66 68 -38 68 Z M4 68 C5 72 5 72 5 72 Z M9 68 C10 70 10 70 10 70 Z M33 68 C33 72.95 33 77.9 33 83 C33.99 83.495 33.99 83.495 35 84 C35 78.72 35 73.44 35 68 C34.34 68 33.68 68 33 68 Z M-14 69 C-13 71 -13 71 -13 71 Z M-9 70 C-8 74 -8 74 -8 74 Z M7 70 C8 73 8 73 8 73 Z M10 70 C10.53400897 73.91606575 11.19669467 76.39338934 13 80 C8.545 81.485 8.545 81.485 4 83 C4 83.33 4 83.66 4 84 C9.28744604 83.69675189 9.28744604 83.69675189 14.0625 81.75 C15.40469845 79.24456289 14.7875684 77.6490937 14 75 C13.34 75 12.68 75 12 75 C11.67 73.35 11.34 71.7 11 70 C10.67 70 10.34 70 10 70 Z M-15 71 C-16.32 73.64 -17.64 76.28 -19 79 C-18.01 80.32 -17.02 81.64 -16 83 C-14.68 82.67 -13.36 82.34 -12 82 C-13.32 81.01 -14.64 80.02 -16 79 C-15.649375 78.236875 -15.29875 77.47375 -14.9375 76.6875 C-13.67639116 73.95240621 -13.67639116 73.95240621 -15 71 Z M-12 71 C-11 74 -11 74 -11 74 Z M-20 72 C-20.33 73.65 -20.66 75.3 -21 77 C-20.01 75.68 -19.02 74.36 -18 73 C-18.66 72.67 -19.32 72.34 -20 72 Z M5 73 C5 74.65 5 76.3 5 78 C5.33 78 5.66 78 6 78 C6 76.35 6 74.7 6 73 C5.67 73 5.34 73 5 73 Z M15 73 C15.33 74.32 15.66 75.64 16 77 C16.66 76.67 17.32 76.34 18 76 C17.01 75.01 16.02 74.02 15 73 Z M8 74 C9 77 9 77 9 77 Z M-13 75 C-12 78 -12 78 -12 78 Z M-10 75 C-10.33 76.65 -10.66 78.3 -11 80 C-10.34 80 -9.68 80 -9 80 C-9 78.35 -9 76.7 -9 75 C-9.33 75 -9.66 75 -10 75 Z M6 78 C7 80 7 80 7 80 Z M-22 81 C-21 83 -21 83 -21 83 Z M24 81 C24 81.66 24 82.32 24 83 C24.99 82.67 25.98 82.34 27 82 C26.01 81.67 25.02 81.34 24 81 Z M-31 82 C-31.66 82.66 -32.32 83.32 -33 84 C-33 84.99 -33 85.98 -33 87 C-32.01 87 -31.02 87 -30 87 C-30 85.35 -30 83.7 -30 82 C-30.33 82 -30.66 82 -31 82 Z M-12 83 C-12 83.33 -12 83.66 -12 84 C-10.35 84 -8.7 84 -7 84 C-7 83.67 -7 83.34 -7 83 C-8.65 83 -10.3 83 -12 83 Z M0 83 C-0.33 83.66 -0.66 84.32 -1 85 C0.65 85 2.3 85 4 85 C2.68 84.34 1.36 83.68 0 83 Z M27 83 C27.66 84.32 28.32 85.64 29 87 C28.67 85.68 28.34 84.36 28 83 C27.67 83 27.34 83 27 83 Z M-27 84 C-26.67 85.65 -26.34 87.3 -26 89 C-24.02 89.495 -24.02 89.495 -22 90 C-22 89.34 -22 88.68 -22 88 C-19.03 88.495 -19.03 88.495 -16 89 C-16.33 89.99 -16.66 90.98 -17 92 C-15.68 91.67 -14.36 91.34 -13 91 C-13 90.34 -13 89.68 -13 89 C-10.69 89 -8.38 89 -6 89 C-5.67 90.32 -5.34 91.64 -5 93 C-0.545 92.505 -0.545 92.505 4 92 C4 91.01 4 90.02 4 89 C4.66 89 5.32 89 6 89 C6.495 90.98 6.495 90.98 7 93 C7.66 93 8.32 93 9 93 C9.33 92.34 9.66 91.68 10 91 C12.0625 90.375 12.0625 90.375 14 90 C14 89.01 14 88.02 14 87 C14.66 87 15.32 87 16 87 C16 87.99 16 88.98 16 90 C16.66 89.67 17.32 89.34 18 89 C17.505 86.525 17.505 86.525 17 84 C16.443125 84.13277344 15.88625 84.26554687 15.3125 84.40234375 C11.40325123 85.30701787 7.55187857 86.10866244 3.5625 86.5625 C0.16515671 86.7778983 0.16515671 86.7778983 -2 88 C-5.38865701 87.22544983 -8.71491932 86.327894 -12.05859375 85.3828125 C-15.84884448 84.36370273 -18.26090203 83.98754407 -22 85 C-24.75 84.5625 -24.75 84.5625 -27 84 Z M-5 83 C-5.66 83.66 -6.32 84.32 -7 85 C-5.35 85 -3.7 85 -2 85 C-2.99 84.34 -3.98 83.68 -5 83 Z M19 85 C19.33 86.65 19.66 88.3 20 90 C20.99 89.67 21.98 89.34 23 89 C22.34 87.68 21.68 86.36 21 85 C20.34 85 19.68 85 19 85 Z M-33 89 C-32.27257493 92.27088902 -32.27257493 92.27088902 -29.0625 93.75 C-28.051875 94.1625 -27.04125 94.575 -26 95 C-25.34 94.67 -24.68 94.34 -24 94 C-25.305239 91.38952199 -26.35826574 91.31933577 -29.0625 90.375 C-29.79597656 90.11460938 -30.52945312 89.85421875 -31.28515625 89.5859375 C-31.85105469 89.39257812 -32.41695312 89.19921875 -33 89 Z M-10 91 C-10 91.66 -10 92.32 -10 93 C-9.34 93 -8.68 93 -8 93 C-8 92.34 -8 91.68 -8 91 C-8.66 91 -9.32 91 -10 91 Z M10 92 C10.33 92.66 10.66 93.32 11 94 C11.66 93.34 12.32 92.68 13 92 C12.01 92 11.02 92 10 92 Z M24 91 C21.39068734 91.89363605 21.39068734 91.89363605 19 93 C19 93.66 19 94.32 19 95 C22.93075644 94.42547254 22.93075644 94.42547254 26 92 C25.34 91.67 24.68 91.34 24 91 Z M-23 94 C-23 94.66 -23 95.32 -23 96 C-8.60035275 100.42851821 4.57871216 101.17071894 19 96 C19 95.67 19 95.34 19 95 C9.66824711 94.4661921 1.07449185 96.08718365 -8 98 C-8 97.34 -8 96.68 -8 96 C-12.99367864 95.2717552 -17.99109914 94.61512818 -23 94 Z " fill="#FFFFFF" transform="translate(42,0)"/>
<path d="M0 0 C1.32 0 2.64 0 4 0 C5.32 3.3 6.64 6.6 8 10 C8.33 6.7 8.66 3.4 9 0 C11.97 0 14.94 0 18 0 C19.125 5.75 19.125 5.75 18 8 C18.99 9.485 18.99 9.485 20 11 C21.65 7.37 23.3 3.74 25 0 C26.32 0 27.64 0 29 0 C30.32 2.97 31.64 5.94 33 9 C33.33 6.03 33.66 3.06 34 0 C36.97 0 39.94 0 43 0 C43.77098585 4.04767571 44.37453026 7.88016718 44 12 C40.57905758 14.28062828 39.31812778 14.21925007 35.3125 14.125 C33.82169922 14.09792969 33.82169922 14.09792969 32.30078125 14.0703125 C31.54152344 14.04710937 30.78226563 14.02390625 30 14 C29.505 12.02 29.505 12.02 29 10 C27.05925139 10.27617533 27.05925139 10.27617533 25 11 C24.01 12.485 24.01 12.485 23 14 C20.0625 14.375 20.0625 14.375 17 14 C15.125 12.5 15.125 12.5 14 11 C13.67 11.99 13.34 12.98 13 14 C10.36 14 7.72 14 5 14 C4.67 12.68 4.34 11.36 4 10 C2.05925139 10.27617533 2.05925139 10.27617533 0 11 C-0.99 12.485 -0.99 12.485 -2 14 C-2.99 14 -3.98 14 -5 14 C-4.34580901 8.93001981 -2.1453591 4.58009223 0 0 Z M13 2 C13.33 3.32 13.66 4.64 14 6 C14 4.68 14 3.36 14 2 C13.67 2 13.34 2 13 2 Z M38 2 C38 2.99 38 3.98 38 5 C38.66 5 39.32 5 40 5 C39.67 4.01 39.34 3.02 39 2 C38.67 2 38.34 2 38 2 Z M1 5 C2 7 2 7 2 7 Z M38 8 C38 8.99 38 9.98 38 11 C38.99 10.67 39.98 10.34 41 10 C40.67 9.34 40.34 8.68 40 8 C39.34 8 38.68 8 38 8 Z " fill="#FFFFFF" transform="translate(177,23)"/>
<path d="M0 0 C2.64 0 5.28 0 8 0 C8 0.66 8 1.32 8 2 C6.68 2 5.36 2 4 2 C4 2.99 4 3.98 4 5 C5.32 5 6.64 5 8 5 C8 5.99 8 6.98 8 8 C6.68 8 5.36 8 4 8 C4 8.99 4 9.98 4 11 C5.98 11 7.96 11 10 11 C10.33 7.37 10.66 3.74 11 0 C12.65 0.33 14.3 0.66 16 1 C17.3125 3.0625 17.3125 3.0625 18 5 C18.66 3.35 19.32 1.7 20 0 C21.32 0 22.64 0 24 0 C24.33820166 1.5823006 24.67035939 3.16589375 25 4.75 C25.185625 5.63171875 25.37125 6.5134375 25.5625 7.421875 C26 10 26 10 26 14 C24.68 13.67 23.36 13.34 22 13 C21.67 11.35 21.34 9.7 21 8 C20.01 9.98 19.02 11.96 18 14 C17.34 14 16.68 14 16 14 C15.34 12.35 14.68 10.7 14 9 C13.34 10.65 12.68 12.3 12 14 C8.04 14 4.08 14 0 14 C0 9.38 0 4.76 0 0 Z " fill="#FFFFFF" transform="translate(227,23)"/>
<path d="M0 0 C6.15234375 -0.09765625 6.15234375 -0.09765625 8 0 C9 1 9 1 9.0625 3.375 C9.041875 4.24125 9.02125 5.1075 9 6 C8.7763932 8.9254644 8.7763932 8.9254644 10 11 C11.98 7.37 13.96 3.74 16 0 C17.32 0.33 18.64 0.66 20 1 C21.265625 3.1796875 21.265625 3.1796875 22.25 5.875 C22.58515625 6.75929688 22.9203125 7.64359375 23.265625 8.5546875 C24 11 24 11 24 14 C22.0625 13.625 22.0625 13.625 20 13 C19.67 12.34 19.34 11.68 19 11 C16.97536745 10.34786708 16.97536745 10.34786708 15 10 C14.67 11.32 14.34 12.64 14 14 C11.25 14.25 11.25 14.25 8 14 C5.625 12 5.625 12 4 10 C3.67 11.32 3.34 12.64 3 14 C2.01 14 1.02 14 0 14 C0 9.38 0 4.76 0 0 Z M3 2 C3 3.32 3 4.64 3 6 C3.66 6 4.32 6 5 6 C5 4.68 5 3.36 5 2 C4.34 2 3.68 2 3 2 Z " fill="#FFFFFF" transform="translate(260,23)"/>
<path d="M0 0 C7 0 7 0 9 1 C9 3.97 9 6.94 9 10 C11.49092811 11.24546405 12.41080733 10.7767578 15 10 C14.01 9.4121875 14.01 9.4121875 13 8.8125 C11 7 11 7 10.625 4.4375 C11 2 11 2 13 0 C16.125 -0.125 16.125 -0.125 19 0 C19 0.99 19 1.98 19 3 C17.68 3.33 16.36 3.66 15 4 C16.65 5.32 18.3 6.64 20 8 C19.125 12.875 19.125 12.875 18 14 C15.98035801 14.07244053 13.95832876 14.08377188 11.9375 14.0625 C10.28041016 14.04896484 10.28041016 14.04896484 8.58984375 14.03515625 C7.73519531 14.02355469 6.88054687 14.01195312 6 14 C5.34 12.68 4.68 11.36 4 10 C3.67 11.32 3.34 12.64 3 14 C2.01 14 1.02 14 0 14 C0 9.38 0 4.76 0 0 Z M3 3 C3 3.99 3 4.98 3 6 C3.99 5.67 4.98 5.34 6 5 C5.67 4.34 5.34 3.68 5 3 C4.34 3 3.68 3 3 3 Z " fill="#FFFFFF" transform="translate(351,48)"/>
<path d="M0 0 C0 0.99 0 1.98 0 3 C-1.98 3.33 -3.96 3.66 -6 4 C-6.77242269 5.83700789 -6.77242269 5.83700789 -7 8 C-6.02478463 9.89350331 -6.02478463 9.89350331 -4 11 C-0.87450983 11.25048636 -0.87450983 11.25048636 2 11 C2.12375 10.29875 2.2475 9.5975 2.375 8.875 C3.03838345 5.82343613 3.97211955 2.94659062 5 0 C7.35546875 0.1953125 7.35546875 0.1953125 10 1 C11.36328125 3.1796875 11.36328125 3.1796875 12.3125 5.875 C12.63863281 6.75929688 12.96476562 7.64359375 13.30078125 8.5546875 C14 11 14 11 14 14 C12.68 14 11.36 14 10 14 C9.67 13.34 9.34 12.68 9 12 C6.97536745 11.34786708 6.97536745 11.34786708 5 11 C4.67 11.99 4.34 12.98 4 14 C2.06318839 14.08107583 0.1254066 14.13922475 -1.8125 14.1875 C-2.89144531 14.22230469 -3.97039062 14.25710937 -5.08203125 14.29296875 C-8 14 -8 14 -9.859375 12.73828125 C-11.87928119 9.65999955 -11.64808582 6.53501357 -11 3 C-8.03489811 -0.79533041 -4.53276877 -0.26150589 0 0 Z M7 6 C6.67 6.66 6.34 7.32 6 8 C6.66 8 7.32 8 8 8 C7.67 7.34 7.34 6.68 7 6 Z " fill="#FFFFFF" transform="translate(230,48)"/>
<path d="M0 0 C1.32 0 2.64 0 4 0 C5.32 3.3 6.64 6.6 8 10 C8.144375 8.535625 8.28875 7.07125 8.4375 5.5625 C8.875 1.125 8.875 1.125 10 0 C12.67058851 -0.14115161 15.32432238 -0.04247107 18 0 C17.67 0.99 17.34 1.98 17 3 C15.68 3 14.36 3 13 3 C13 3.99 13 4.98 13 6 C14.65 6 16.3 6 18 6 C17.67 6.99 17.34 7.98 17 9 C15.68 9 14.36 9 13 9 C13 10.65 13 12.3 13 14 C10.36 14 7.72 14 5 14 C4.67 13.01 4.34 12.02 4 11 C2.35 11 0.7 11 -1 11 C-1 11.99 -1 12.98 -1 14 C-2.32 14 -3.64 14 -5 14 C-3.45730076 9.27934033 -1.92205381 4.58335908 0 0 Z M1 6 C2 8 2 8 2 8 Z " fill="#FFFFFF" transform="translate(305,48)"/>
<path d="M0 0 C-0.33 0.99 -0.66 1.98 -1 3 C-2.32 2.67 -3.64 2.34 -5 2 C-4.175 2.721875 -3.35 3.44375 -2.5 4.1875 C0 7 0 7 0.4375 9.6875 C0 12 0 12 -2 14 C-5 14.125 -5 14.125 -8 14 C-8.66 14 -9.32 14 -10 14 C-12.66666667 14 -15.33333333 14 -18 14 C-18 9.38 -18 4.76 -18 0 C-15.36 0 -12.72 0 -10 0 C-10 0.66 -10 1.32 -10 2 C-11.65 2 -13.3 2 -15 2 C-15 2.99 -15 3.98 -15 5 C-13.35 5 -11.7 5 -10 5 C-10.33 5.99 -10.66 6.98 -11 8 C-12.32 8 -13.64 8 -15 8 C-15 8.99 -15 9.98 -15 11 C-14.37351562 10.91621094 -13.74703125 10.83242188 -13.1015625 10.74609375 C-12.28429687 10.64425781 -11.46703125 10.54242188 -10.625 10.4375 C-9.81289063 10.33308594 -9.00078125 10.22867188 -8.1640625 10.12109375 C-6 10 -6 10 -4 11 C-4.845625 10.113125 -5.69125 9.22625 -6.5625 8.3125 C-9.00880626 5.3962818 -9.00880626 5.3962818 -8.9375 2.1875 C-7.04447498 -2.22955837 -4.0793865 -0.79814084 0 0 Z " fill="#FFFFFF" transform="translate(313,23)"/>
<path d="M0 0 C1.18613892 0.00785522 1.18613892 0.00785522 2.39624023 0.01586914 C3.67724609 0.02070312 3.67724609 0.02070312 4.98413086 0.02563477 C5.88196289 0.03401367 6.77979492 0.04239258 7.70483398 0.05102539 C8.6065332 0.05553711 9.50823242 0.06004883 10.43725586 0.06469727 C12.67234712 0.07652315 14.90730835 0.09300319 17.14233398 0.11352539 C17.14233398 1.10352539 17.14233398 2.09352539 17.14233398 3.11352539 C15.82233398 3.11352539 14.50233398 3.11352539 13.14233398 3.11352539 C13.14233398 6.74352539 13.14233398 10.37352539 13.14233398 14.11352539 C11.82233398 14.11352539 10.50233398 14.11352539 9.14233398 14.11352539 C9.14233398 10.48352539 9.14233398 6.85352539 9.14233398 3.11352539 C6.50233398 3.44352539 3.86233398 3.77352539 1.14233398 4.11352539 C2.79233398 5.76352539 4.44233398 7.41352539 6.14233398 9.11352539 C5.48233398 10.76352539 4.82233398 12.41352539 4.14233398 14.11352539 C1.83233398 14.11352539 -0.47766602 14.11352539 -2.85766602 14.11352539 C-2.85766602 13.12352539 -2.85766602 12.13352539 -2.85766602 11.11352539 C-1.53766602 10.78352539 -0.21766602 10.45352539 1.14233398 10.11352539 C0.48233398 9.74227539 -0.17766602 9.37102539 -0.85766602 8.98852539 C-2.85766602 7.11352539 -2.85766602 7.11352539 -3.17016602 3.98852539 C-2.75493052 0.16835888 -2.75493052 0.16835888 0 0 Z " fill="#FFFFFF" transform="translate(145.857666015625,47.886474609375)"/>
<path d="M0 0 C6.6 0 13.2 0 20 0 C20 0.99 20 1.98 20 3 C18.68 3 17.36 3 16 3 C16 6.63 16 10.26 16 14 C14.68 14 13.36 14 12 14 C12 10.37 12 6.74 12 3 C9.03 3 6.06 3 3 3 C3 3.99 3 4.98 3 6 C4.65 6 6.3 6 8 6 C8 6.66 8 7.32 8 8 C6.35 8 4.7 8 3 8 C3.33 8.99 3.66 9.98 4 11 C5.32 11 6.64 11 8 11 C8 11.99 8 12.98 8 14 C5.36 14 2.72 14 0 14 C0 9.38 0 4.76 0 0 Z " fill="#FFFFFF" transform="translate(276,48)"/>
<path d="M0 0 C1.32 0 2.64 0 4 0 C4.99 1.98 5.98 3.96 7 6 C7.99 4.02 8.98 2.04 10 0 C10.99 0 11.98 0 13 0 C13.33820166 1.5823006 13.67035939 3.16589375 14 4.75 C14.185625 5.63171875 14.37125 6.5134375 14.5625 7.421875 C15 10 15 10 15 14 C13.68 14 12.36 14 11 14 C10.67 12.35 10.34 10.7 10 9 C9.34 10.65 8.68 12.3 8 14 C7.01 14 6.02 14 5 14 C4.34 12.35 3.68 10.7 3 9 C2.67 10.65 2.34 12.3 2 14 C0.68 14 -0.64 14 -2 14 C-1.34 9.38 -0.68 4.76 0 0 Z " fill="#FFFFFF" transform="translate(102,48)"/>
<path d="M0 0 C6.93 0 13.86 0 21 0 C21 0.66 21 1.32 21 2 C19.35 2 17.7 2 16 2 C16 2.99 16 3.98 16 5 C17.65 5 19.3 5 21 5 C20.67 5.99 20.34 6.98 20 8 C18.68 8 17.36 8 16 8 C16 8.99 16 9.98 16 11 C17.65 11 19.3 11 21 11 C20.67 11.99 20.34 12.98 20 14 C17.69 14 15.38 14 13 14 C13 10.04 13 6.08 13 2 C11.35 2 9.7 2 8 2 C8 5.96 8 9.92 8 14 C6.68 14 5.36 14 4 14 C4 10.04 4 6.08 4 2 C2.68 2 1.36 2 0 2 C0 1.34 0 0.68 0 0 Z " fill="#FFFFFF" transform="translate(133,23)"/>
<path d="M0 0 C1.65 0 3.3 0 5 0 C7.3125 3 7.3125 3 9 6 C9.33 4.02 9.66 2.04 10 0 C10.99 0 11.98 0 13 0 C13 4.62 13 9.24 13 14 C8 13 8 13 6.1875 10.4375 C5.795625 9.633125 5.40375 8.82875 5 8 C4.67 9.98 4.34 11.96 4 14 C3.01 14 2.02 14 1 14 C0.67 9.38 0.34 4.76 0 0 Z " fill="#FFFFFF" transform="translate(114,23)"/>
<path d="M0 0 C1.32 0 2.64 0 4 0 C6.25 3 6.25 3 8 6 C8.33 4.02 8.66 2.04 9 0 C9.99 0 10.98 0 12 0 C12 4.62 12 9.24 12 14 C7 13 7 13 5.1875 10.9375 C4.795625 10.298125 4.40375 9.65875 4 9 C3.67 10.65 3.34 12.3 3 14 C2.01 14 1.02 14 0 14 C0 9.38 0 4.76 0 0 Z " fill="#FFFFFF" transform="translate(124,48)"/>
<path d="M0 0 C1.6026782 -0.10824843 3.20745748 -0.18570645 4.8125 -0.25 C5.70582031 -0.29640625 6.59914062 -0.3428125 7.51953125 -0.390625 C10 0 10 0 11.828125 1.79296875 C13.61555655 5.15929816 12.9809273 7.40326656 12 11 C10.375 12.9375 10.375 12.9375 8 14 C4.3125 14.25 4.3125 14.25 1 14 C0 13 0 13 -0.09765625 10.05859375 C-0.08605469 8.86363281 -0.07445312 7.66867188 -0.0625 6.4375 C-0.05347656 5.23996094 -0.04445312 4.04242188 -0.03515625 2.80859375 C-0.02355469 1.88175781 -0.01195312 0.95492188 0 0 Z M4 2 C4 4.97 4 7.94 4 11 C7.74275212 10.42874646 7.74275212 10.42874646 9 9 C9.04063832 7.33382885 9.042721 5.66611905 9 4 C6.525 3.01 6.525 3.01 4 2 Z " fill="#FFFFFF" transform="translate(155,23)"/>
<path d="M0 0 C1.9375 1 1.9375 1 3 3 C3.52673518 6.56102656 3.62932095 9.7413581 2 13 C-1.2586419 14.62932095 -4.43897344 14.52673518 -8 14 C-10 12.9375 -10 12.9375 -11 11 C-11.49573337 7.10495209 -11.58016848 4.90506283 -9.4375 1.5625 C-6.09493717 -0.58016848 -3.89504791 -0.49573337 0 0 Z M-6 3 C-7.35618499 4.12534105 -7.35618499 4.12534105 -7.0625 7.0625 C-7.041875 8.031875 -7.02125 9.00125 -7 10 C-5.11683841 11.10836423 -5.11683841 11.10836423 -3 12 C-0.85008433 11.19815586 -0.85008433 11.19815586 -0.25 9.1875 C0.05694702 6.50171361 -0.61888278 5.2747813 -2 3 C-3.32 3 -4.64 3 -6 3 Z " fill="#FFFFFF" transform="translate(201,48)"/>
<path d="M0 0 C5 1 5 1 6.8125 3.0625 C7.204375 3.701875 7.59625 4.34125 8 5 C8.66 3.35 9.32 1.7 10 0 C10.99 0 11.98 0 13 0 C12.67 4.62 12.34 9.24 12 14 C7.70574125 12.92643531 7.25259529 12.4915227 5 9 C4.67 10.65 4.34 12.3 4 14 C3.01 14 2.02 14 1 14 C0.67 9.38 0.34 4.76 0 0 Z " fill="#FFFFFF" transform="translate(261,48)"/>
<path d="M0 0 C2.31 0 4.62 0 7 0 C9 2 9 2 9.0625 4.3125 C9.041875 5.199375 9.02125 6.08625 9 7 C9.20625 7.886875 9.4125 8.77375 9.625 9.6875 C9.74875 10.450625 9.8725 11.21375 10 12 C8 14 8 14 6.0546875 14.1953125 C4.03645833 14.13020833 2.01822917 14.06510417 0 14 C0 9.38 0 4.76 0 0 Z M3 3 C3 3.99 3 4.98 3 6 C3.66 6 4.32 6 5 6 C5 5.01 5 4.02 5 3 C4.34 3 3.68 3 3 3 Z M3 8 C3 9.32 3 10.64 3 12 C3.99 11.67 4.98 11.34 6 11 C5.67 10.01 5.34 9.02 5 8 C4.34 8 3.68 8 3 8 Z " fill="#FFFFFF" transform="translate(245,48)"/>
<path d="M0 0 C7 0 7 0 9 1 C8.96519531 1.90492187 8.96519531 1.90492187 8.9296875 2.828125 C8.91164062 3.62734375 8.89359375 4.4265625 8.875 5.25 C8.84019531 6.43335938 8.84019531 6.43335938 8.8046875 7.640625 C9.0171622 10.20731941 9.71345895 11.7916067 11 14 C8.625 13.6875 8.625 13.6875 6 13 C5.34 12.01 4.68 11.02 4 10 C3.67 11.32 3.34 12.64 3 14 C2.01 14 1.02 14 0 14 C0 9.38 0 4.76 0 0 Z M3 3 C3 3.99 3 4.98 3 6 C3.99 5.67 4.98 5.34 6 5 C5.67 4.34 5.34 3.68 5 3 C4.34 3 3.68 3 3 3 Z " fill="#FFFFFF" transform="translate(164,48)"/>
<path d="M0 0 C1.32 0 2.64 0 4 0 C4.33 3.3 4.66 6.6 5 10 C5.99 9.67 6.98 9.34 8 9 C8.33 6.03 8.66 3.06 9 0 C9.99 0 10.98 0 12 0 C12.08153933 1.58246707 12.13943557 3.16616273 12.1875 4.75 C12.22230469 5.63171875 12.25710937 6.5134375 12.29296875 7.421875 C11.94313716 10.50039296 11.16160039 11.80816743 9 14 C5.88995859 14.45354771 3.95480366 14.66769486 1.32421875 12.828125 C-0.53070911 10.26733964 -0.29773624 8.43586006 -0.1875 5.3125 C-0.16042969 4.31863281 -0.13335937 3.32476563 -0.10546875 2.30078125 C-0.07066406 1.54152344 -0.03585938 0.78226563 0 0 Z " fill="#FFFFFF" transform="translate(101,23)"/>
<path d="M0 0 C1.859375 0.1953125 1.859375 0.1953125 4 1 C5.265625 3.1796875 5.265625 3.1796875 6.25 5.875 C6.58515625 6.75929688 6.9203125 7.64359375 7.265625 8.5546875 C8 11 8 11 8 14 C6.68 14 5.36 14 4 14 C4 13.01 4 12.02 4 11 C2.35 11 0.7 11 -1 11 C-1.33 11.99 -1.66 12.98 -2 14 C-2.99 14 -3.98 14 -5 14 C-4.54636829 12.41531323 -4.08688548 10.83230076 -3.625 9.25 C-3.36976563 8.36828125 -3.11453125 7.4865625 -2.8515625 6.578125 C-2.0790066 4.23919428 -1.16374324 2.16557438 0 0 Z M1 5 C2 8 2 8 2 8 Z " fill="#FFFFFF" transform="translate(336,48)"/>
<path d="M0 0 C1.9375 0.3125 1.9375 0.3125 4 1 C4.33 1.99 4.66 2.98 5 4 C5.66 4 6.32 4 7 4 C7.66 2.68 8.32 1.36 9 0 C9.99 0.33 10.98 0.66 12 1 C11.566875 1.77923828 11.566875 1.77923828 11.125 2.57421875 C8.23267168 7.96165468 8.23267168 7.96165468 8 14 C6.68 14 5.36 14 4 14 C3.54427083 12.01432292 3.08854167 10.02864583 2.6328125 8.04296875 C2.01992277 5.72257026 2.01992277 5.72257026 0 3 C0 2.01 0 1.02 0 0 Z " fill="#FFFFFF" transform="translate(174,48)"/>
<path d="M0 0 C2.64 0 5.28 0 8 0 C8 0.99 8 1.98 8 3 C6.35 3 4.7 3 3 3 C3 3.99 3 4.98 3 6 C4.65 6 6.3 6 8 6 C7.67 6.99 7.34 7.98 7 9 C5.68 9 4.36 9 3 9 C3 10.65 3 12.3 3 14 C2.01 14 1.02 14 0 14 C0 9.38 0 4.76 0 0 Z " fill="#FFFFFF" transform="translate(324,48)"/>
<path d="M0 0 C2.64 0 5.28 0 8 0 C8 0.99 8 1.98 8 3 C6.35 3 4.7 3 3 3 C3 3.99 3 4.98 3 6 C4.65 6 6.3 6 8 6 C7.67 6.99 7.34 7.98 7 9 C5.68 9 4.36 9 3 9 C3 10.65 3 12.3 3 14 C2.01 14 1.02 14 0 14 C0 9.38 0 4.76 0 0 Z " fill="#FFFFFF" transform="translate(206,48)"/>
<path d="M0 0 C3.96 0 7.92 0 12 0 C12 0.66 12 1.32 12 2 C10.68 2 9.36 2 8 2 C8 5.96 8 9.92 8 14 C6.68 13.67 5.36 13.34 4 13 C4 9.37 4 5.74 4 2 C2.68 2 1.36 2 0 2 C0 1.34 0 0.68 0 0 Z " fill="#FFFFFF" transform="translate(282,23)"/>
<path d="M0 0 C1.32 0 2.64 0 4 0 C4 4.62 4 9.24 4 14 C2.68 14 1.36 14 0 14 C0 9.38 0 4.76 0 0 Z " fill="#FFFFFF" transform="translate(118,48)"/>
<path d="M0 0 C1.32 0 2.64 0 4 0 C4 4.62 4 9.24 4 14 C2.68 14 1.36 14 0 14 C0 9.38 0 4.76 0 0 Z " fill="#FFFFFF" transform="translate(254,23)"/>
<path d="M0 0 C1.32 0.33 2.64 0.66 4 1 C4 5.29 4 9.58 4 14 C2.68 14 1.36 14 0 14 C0 9.38 0 4.76 0 0 Z " fill="#FFFFFF" transform="translate(345,48)"/>
<path d="M0 0 C1.32 0.33 2.64 0.66 4 1 C4 5.29 4 9.58 4 14 C2.68 14 1.36 14 0 14 C0 9.38 0 4.76 0 0 Z " fill="#FFFFFF" transform="translate(256,48)"/>
<path d="M0 0 C0.99 0 1.98 0 3 0 C3 4.62 3 9.24 3 14 C2.01 14 1.02 14 0 14 C0 9.38 0 4.76 0 0 Z " fill="#FFFFFF" transform="translate(138,48)"/>
<path d="M0 0 C0.99 0 1.98 0 3 0 C3 4.62 3 9.24 3 14 C2.01 14 1.02 14 0 14 C0 9.38 0 4.76 0 0 Z " fill="#FFFFFF" transform="translate(129,23)"/>
</svg>
