<?xml version="1.0" encoding="UTF-8"?>
<svg version="1.1" xmlns="http://www.w3.org/2000/svg" width="512" height="512">
<path d="M0 0 C0.88669184 -0.00282738 1.77338367 -0.00565475 2.68694496 -0.00856781 C7.38952548 -0.02349017 12.09207593 -0.03276067 16.79467773 -0.03710938 C20.62973648 -0.04147484 24.46456782 -0.05530108 28.29956055 -0.078125 C83.28974051 -0.39865712 131.69162837 8.335439 172.39453125 48.203125 C173.60689453 49.34007812 173.60689453 49.34007812 174.84375 50.5 C202.62690775 77.07097809 219.98718641 117.92334548 221.39453125 156.203125 C221.48927734 157.95109375 221.48927734 157.95109375 221.5859375 159.734375 C221.93806257 170.91150641 220.51087544 181.62650713 213.08203125 190.4296875 C205.40470334 198.49799044 197.10515821 203.79095105 185.67252779 204.33192617 C184.67901166 204.33371474 183.68549554 204.33550331 182.66187286 204.33734608 C180.93468482 204.34403284 180.93468482 204.34403284 179.17260408 204.35085469 C177.91202291 204.35067033 176.65144174 204.35048597 175.35266113 204.35029602 C173.99642567 204.35359698 172.64019119 204.35732304 171.28395796 204.3614375 C167.55783182 204.37143931 163.8317218 204.37517136 160.10558414 204.37782681 C156.08629233 204.3817353 152.06701319 204.3913133 148.04772949 204.40003967 C138.34110391 204.41978932 128.63447731 204.42986867 118.92783666 204.43876746 C114.35398494 204.44315307 109.78013438 204.44851919 105.20628357 204.45375633 C89.99667857 204.47076757 74.78707429 204.48526082 59.57746124 204.49250507 C55.63171894 204.49441489 51.68597665 204.49633523 47.74023438 204.49829102 C46.26923638 204.49901663 46.26923638 204.49901663 44.76852125 204.4997569 C28.88932986 204.50805374 13.01021389 204.53338528 -2.86894459 204.56587169 C-19.18089617 204.59897076 -35.49280946 204.61695643 -51.80479479 204.62014931 C-60.95962737 204.62231184 -70.11434999 204.63102266 -79.26914978 204.65661049 C-87.0673191 204.67835646 -94.86535174 204.6863488 -102.66354793 204.67664371 C-106.63887315 204.67211018 -110.61391661 204.67392955 -114.58920288 204.69340515 C-118.23641037 204.71111826 -121.88313226 204.70997402 -125.5303455 204.69450786 C-127.45811724 204.69103369 -129.38589456 204.70709711 -131.31359434 204.72411233 C-144.46937293 204.62781758 -154.97231172 201.49074817 -164.50390625 192.390625 C-173.02759341 183.47132366 -175.02101819 172.85571183 -174.81640625 160.87890625 C-173.31777975 118.44557429 -156.20014294 79.41779934 -126.60546875 49.203125 C-125.8475 48.39488281 -125.08953125 47.58664062 -124.30859375 46.75390625 C-91.78063964 12.74201263 -45.6589623 0.09933688 0 0 Z " fill="#808080" transform="translate(232.60546875,281.796875)"/>
<path d="M0 0 C0.81984375 0.66773437 1.6396875 1.33546875 2.484375 2.0234375 C8.45152247 7.06464829 13.23012377 12.83677282 18 19 C18.65742188 19.79535156 19.31484375 20.59070313 19.9921875 21.41015625 C30.55485461 34.79377662 37.12741402 51.51191558 41 68 C41.24363281 68.99902344 41.48726562 69.99804688 41.73828125 71.02734375 C48.24685971 104.01299648 39.49050848 137.23658971 21.57177734 164.97729492 C17.34788263 171.23754962 12.26090013 176.60979972 7 182 C6.12794922 182.96486328 6.12794922 182.96486328 5.23828125 183.94921875 C-9.73016387 200.12418841 -31.91321464 210.06923794 -53 215 C-53.82306641 215.19287598 -54.64613281 215.38575195 -55.49414062 215.58447266 C-63.46363463 217.24552347 -71.38302928 217.39858753 -79.5 217.375 C-80.20487549 217.37445618 -80.90975098 217.37391235 -81.63598633 217.37335205 C-93.13735004 217.33263407 -103.97792364 216.46483453 -115 213 C-115.68900391 212.78569336 -116.37800781 212.57138672 -117.08789062 212.35058594 C-136.26025471 206.17841437 -152.37941238 195.78792434 -167 182 C-167.67675781 181.38769531 -168.35351562 180.77539062 -169.05078125 180.14453125 C-190.43018797 160.05045961 -202.24259523 129.62311219 -203.28125 100.68359375 C-203.54313181 88.21510989 -203.20334023 76.09370641 -200 64 C-199.81195801 63.29004883 -199.62391602 62.58009766 -199.43017578 61.84863281 C-194.49814306 44.04309224 -185.9240281 28.07232407 -174 14 C-173.33355469 13.18273437 -172.66710937 12.36546875 -171.98046875 11.5234375 C-166.94743434 5.55760037 -161.18788866 0.73242752 -155 -4 C-154.20851562 -4.60714844 -153.41703125 -5.21429688 -152.6015625 -5.83984375 C-106.941496 -39.28849712 -43.01586096 -36.08161015 0 0 Z " fill="#808080" transform="translate(336,55)"/>
</svg>
